<svg width="30" height="30" viewBox="0 0 30 30" fill="none" xmlns="http://www.w3.org/2000/svg">
<rect width="30" height="30" fill="#00CCCC"/>
<g clip-path="url(#clip0_7_3673)">
<path d="M18.2103 8H11.7897C9.70001 8 8 9.70001 8 11.7897V18.2104C8 20.3 9.70001 22 11.7897 22H18.2104C20.3 22 22 20.3 22 18.2104V11.7897C22 9.70001 20.3 8 18.2103 8ZM15 18.828C12.8892 18.828 11.172 17.1108 11.172 15C11.172 12.8892 12.8892 11.172 15 11.172C17.1108 11.172 18.828 12.8892 18.828 15C18.828 17.1108 17.1108 18.828 15 18.828ZM18.9195 12.0747C18.2958 12.0747 17.7884 11.5674 17.7884 10.9436C17.7884 10.3198 18.2958 9.81237 18.9195 9.81237C19.5433 9.81237 20.0508 10.3198 20.0508 10.9436C20.0508 11.5674 19.5433 12.0747 18.9195 12.0747Z" fill="white"/>
<path d="M15.0004 11.9927C13.3423 11.9927 11.9932 13.3417 11.9932 14.9999C11.9932 16.6581 13.3423 18.0072 15.0004 18.0072C16.6587 18.0072 18.0077 16.6581 18.0077 14.9999C18.0077 13.3417 16.6587 11.9927 15.0004 11.9927Z" fill="white"/>
<path d="M18.9198 10.6333C18.7487 10.6333 18.6094 10.7726 18.6094 10.9437C18.6094 11.1148 18.7487 11.2541 18.9198 11.2541C19.091 11.2541 19.2303 11.1149 19.2303 10.9437C19.2303 10.7725 19.091 10.6333 18.9198 10.6333Z" fill="white"/>
</g>
<defs>
<clipPath id="clip0_7_3673">
<rect width="14" height="14" fill="white" transform="translate(8 8)"/>
</clipPath>
</defs>
</svg>
