<svg width="30" height="30" viewBox="0 0 30 30" fill="none" xmlns="http://www.w3.org/2000/svg">
<rect width="30" height="30" fill="#00CCCC"/>
<path d="M8.24728 15.5249L11.4732 16.7289L12.7218 20.7444C12.8017 21.0016 13.1162 21.0967 13.3249 20.926L15.1231 19.4601C15.3115 19.3066 15.58 19.2989 15.777 19.4419L19.0202 21.7965C19.2435 21.9589 19.5599 21.8365 19.6159 21.5667L21.9917 10.1384C22.0529 9.84367 21.7633 9.59778 21.4826 9.70633L8.2435 14.8136C7.91679 14.9396 7.91963 15.4021 8.24728 15.5249ZM12.5205 16.088L18.8251 12.205C18.9384 12.1354 19.055 12.2886 18.9577 12.3789L13.7546 17.2154C13.5717 17.3857 13.4537 17.6135 13.4203 17.8608L13.2431 19.1743C13.2196 19.3496 12.9733 19.367 12.9249 19.1973L12.2432 16.8021C12.1651 16.529 12.2789 16.2371 12.5205 16.088Z" fill="white"/>
</svg>
