<svg width="18" height="18" viewBox="0 0 18 18" fill="none" xmlns="http://www.w3.org/2000/svg">
<path d="M11.25 11.8125C11.25 12.1233 10.9983 12.375 10.6875 12.375H7.3125C7.00172 12.375 6.75 12.1233 6.75 11.8125V10.125H0V15.1875C0 16.0875 0.7875 16.875 1.6875 16.875H16.3125C17.2125 16.875 18 16.0875 18 15.1875V10.125H11.25V11.8125ZM16.3125 4.5H13.5V2.8125C13.5 1.9125 12.7125 1.125 11.8125 1.125H6.1875C5.2875 1.125 4.5 1.9125 4.5 2.8125V4.5H1.6875C0.7875 4.5 0 5.2875 0 6.1875V9H18V6.1875C18 5.2875 17.2125 4.5 16.3125 4.5ZM11.25 4.5H6.75V3.375H11.25V4.5Z" fill="#586574"/>
</svg>
