<svg width="211" height="119" viewBox="0 0 211 119" fill="none" xmlns="http://www.w3.org/2000/svg">
<path fill-rule="evenodd" clip-rule="evenodd" d="M112.798 69.4004C113.811 69.4004 113.473 61.1658 113.473 58.4375C113.473 28.5226 88.8276 4.27178 58.4253 4.27178C28.0231 4.27178 3.37719 28.5226 3.37719 58.4375C3.37719 75.0768 11.0022 89.9638 23.0017 99.8999C23.0607 101.434 23.1901 102.95 23.3868 104.445C9.18644 93.9575 0 77.2531 0 58.4375C0 26.6873 26.1579 0.94873 58.4253 0.94873C90.6928 0.94873 116.851 26.6873 116.851 58.4375C116.851 62.4441 116.63 65.6249 115.838 69.4004C114.683 69.4004 114.149 69.4004 112.798 69.4004Z" fill="white"/>
<path fill-rule="evenodd" clip-rule="evenodd" d="M110.174 69.3881C110.174 69.3881 110.508 63.7125 110.31 58.0654C110.31 30.0805 86.9312 7.3943 58.0925 7.3943C29.2538 7.3943 5.87538 30.0805 5.87538 58.0654C5.87538 73.6313 11.3211 86.468 22.7034 95.763C22.7594 97.1979 22.8506 98.7044 23.0373 100.103C9.56719 90.2922 2.67188 75.6671 2.67188 58.0654C2.67188 28.3637 27.4845 4.28564 58.0925 4.28564C88.7004 4.28564 113.513 28.3637 113.513 58.0654C113.513 61.8136 113.931 65.8562 113.179 69.3881C112.084 69.3881 110.174 69.3881 110.174 69.3881Z" fill="#02ADF9"/>
<path d="M35.7244 36.0034L30.0488 31.9971H37.0599L31.0504 22.9829L39.063 27.9908L42.4016 20.312L44.4048 29.3262L50.7481 26.9892L47.7434 31.9971H55.4221L50.0804 36.0034" stroke="#E5181D" stroke-width="0.721515"/>
<path d="M36.7246 34.0003L39.3955 36.3373H45.4049L49.0774 34.0003H45.4049L46.0727 30.9956L43.4018 32.331L42.4002 28.3247L41.7325 32.331L38.7278 30.6617L39.3955 34.0003H36.7246Z" fill="#E5181D"/>
<path d="M28.7129 98.4346H211V104.444H28.7129V98.4346Z" fill="#E5181D"/>
<path fill-rule="evenodd" clip-rule="evenodd" d="M209.664 99.77H30.0483V103.109H209.664V99.77ZM28.7129 98.4346V104.444H211V98.4346H28.7129Z" fill="white"/>
<path d="M91.0137 42.3467H99.2827V66.3845H91.0137V42.3467Z" fill="white"/>
<path d="M81.3962 60.359L79.1526 60.9039V42.3467H87.1653V66.3845H76.813L64.8902 47.8594L67.1337 47.3145V66.3845H59.1211V42.3467H69.7939L81.3962 60.359Z" fill="white"/>
<path d="M38.5845 55.3592C38.5845 56.2352 38.734 56.9937 39.0332 57.6348C39.3537 58.2544 39.8344 58.7352 40.4754 59.077C41.1164 59.4189 41.9391 59.5898 42.9433 59.5898C43.9689 59.5898 44.8022 59.4296 45.4432 59.1091C46.0843 58.7672 46.5543 58.2758 46.8535 57.6348C47.1526 56.9937 47.3022 56.2352 47.3022 55.3592V42.3467H55.5712V55.8079C55.5712 58.0514 55.0477 60.0065 54.0007 61.6731C52.9537 63.3397 51.4794 64.6431 49.5778 65.5833C47.6975 66.5021 45.486 66.9614 42.9433 66.9614C40.422 66.9614 38.2105 66.5021 36.3089 65.5833C34.4286 64.6431 32.9543 63.3397 31.8859 61.6731C30.8389 60.0065 30.3154 58.0514 30.3154 55.8079V42.3467H38.5845V55.3592Z" fill="white"/>
<path d="M205.99 111.693C205.833 111.701 205.698 111.722 205.584 111.757C205.47 111.793 205.381 111.875 205.317 112.003C205.26 112.124 205.231 112.331 205.231 112.623V116.715C205.231 116.907 205.228 117.092 205.221 117.27C205.214 117.448 205.203 117.584 205.189 117.676C205.303 117.662 205.445 117.655 205.616 117.655C205.794 117.648 205.919 117.644 205.99 117.644V118.467H202.924V117.762C203.088 117.754 203.223 117.733 203.33 117.698C203.444 117.662 203.529 117.58 203.586 117.452C203.65 117.324 203.682 117.117 203.682 116.832V112.74C203.682 112.548 203.686 112.363 203.693 112.185C203.707 112.007 203.718 111.871 203.725 111.779C203.611 111.786 203.469 111.793 203.298 111.8C203.127 111.8 203.002 111.804 202.924 111.811V110.988H205.99V111.693ZM210.605 111.693C210.449 111.701 210.313 111.722 210.199 111.757C210.085 111.793 209.996 111.875 209.932 112.003C209.875 112.124 209.847 112.331 209.847 112.623V116.715C209.847 116.907 209.843 117.092 209.836 117.27C209.829 117.448 209.818 117.584 209.804 117.676C209.918 117.662 210.06 117.655 210.231 117.655C210.409 117.648 210.534 117.644 210.605 117.644V118.467H207.539V117.762C207.703 117.754 207.838 117.733 207.945 117.698C208.059 117.662 208.145 117.58 208.201 117.452C208.266 117.324 208.298 117.117 208.298 116.832V112.74C208.298 112.548 208.301 112.363 208.308 112.185C208.323 112.007 208.333 111.871 208.34 111.779C208.226 111.786 208.084 111.793 207.913 111.8C207.742 111.8 207.617 111.804 207.539 111.811V110.988H210.605V111.693ZM209.12 111.309L209.633 111.822L204.302 118.157L203.757 117.612L209.12 111.309Z" fill="white"/>
<path d="M198.829 113.403C198.829 113.018 198.776 112.701 198.669 112.452C198.562 112.196 198.409 112.007 198.209 111.886C198.017 111.757 197.786 111.697 197.515 111.704H197.002V116.715C197.002 116.907 196.999 117.092 196.991 117.27C196.984 117.448 196.974 117.584 196.959 117.676C197.08 117.662 197.234 117.655 197.419 117.655C197.611 117.648 197.743 117.644 197.814 117.644V118.467H194.694V117.762C194.858 117.754 194.994 117.733 195.1 117.698C195.214 117.662 195.3 117.58 195.357 117.452C195.421 117.324 195.453 117.117 195.453 116.832V111.715H194.962C194.556 111.722 194.235 111.861 194 112.131C193.765 112.402 193.647 112.826 193.647 113.403H192.942L192.996 110.988H199.47L199.534 113.403H198.829Z" fill="white"/>
<path d="M185.981 118.638C185.304 118.638 184.727 118.524 184.25 118.296C183.78 118.068 183.399 117.765 183.107 117.388C182.815 117.003 182.601 116.579 182.466 116.116C182.33 115.653 182.263 115.19 182.263 114.728C182.263 114.279 182.337 113.827 182.487 113.371C182.644 112.908 182.875 112.484 183.181 112.099C183.495 111.715 183.887 111.405 184.357 111.17C184.827 110.935 185.379 110.817 186.013 110.817C186.661 110.817 187.22 110.935 187.69 111.17C188.16 111.405 188.545 111.718 188.844 112.11C189.143 112.495 189.364 112.915 189.506 113.371C189.656 113.827 189.73 114.279 189.73 114.728C189.73 115.169 189.652 115.618 189.495 116.074C189.346 116.529 189.114 116.953 188.801 117.345C188.495 117.73 188.107 118.043 187.636 118.285C187.166 118.52 186.614 118.638 185.981 118.638ZM186.098 117.858C186.468 117.858 186.778 117.769 187.028 117.591C187.277 117.406 187.476 117.167 187.626 116.875C187.775 116.583 187.882 116.266 187.946 115.924C188.01 115.575 188.042 115.237 188.042 114.909C188.042 114.418 188 113.969 187.914 113.563C187.829 113.157 187.697 112.808 187.519 112.516C187.341 112.217 187.113 111.989 186.835 111.832C186.565 111.669 186.244 111.59 185.874 111.597C185.51 111.604 185.204 111.704 184.955 111.896C184.706 112.082 184.506 112.324 184.357 112.623C184.207 112.915 184.1 113.235 184.036 113.584C183.972 113.933 183.94 114.272 183.94 114.599C183.94 114.934 183.976 115.29 184.047 115.668C184.125 116.045 184.246 116.401 184.41 116.736C184.574 117.071 184.795 117.341 185.072 117.548C185.35 117.755 185.692 117.858 186.098 117.858Z" fill="white"/>
<path d="M177.71 113.061C177.71 112.669 177.642 112.377 177.507 112.185C177.371 111.985 177.2 111.85 176.994 111.779C176.794 111.708 176.599 111.676 176.406 111.683L175.712 111.693C175.562 111.693 175.434 111.715 175.327 111.757C175.22 111.793 175.139 111.879 175.082 112.014C175.025 112.142 174.996 112.345 174.996 112.623V114.119L175.637 114.097C176.335 114.076 176.898 114.122 177.325 114.236C177.76 114.35 178.091 114.514 178.319 114.728C178.554 114.934 178.71 115.173 178.789 115.443C178.874 115.714 178.917 115.999 178.917 116.298C178.917 116.768 178.803 117.167 178.575 117.495C178.354 117.815 178.048 118.057 177.656 118.221C177.265 118.385 176.819 118.467 176.321 118.467H172.688V117.762C172.852 117.754 172.988 117.733 173.094 117.698C173.208 117.662 173.294 117.58 173.351 117.452C173.415 117.324 173.447 117.117 173.447 116.832V112.74C173.447 112.548 173.451 112.363 173.458 112.185C173.472 112.007 173.483 111.871 173.49 111.779C173.376 111.786 173.233 111.793 173.062 111.8C172.891 111.8 172.767 111.804 172.688 111.811V110.988H178.351L178.404 113.061H177.71ZM174.996 116.768C174.996 116.96 174.993 117.142 174.985 117.313C174.978 117.484 174.968 117.616 174.953 117.708C175.082 117.708 175.203 117.708 175.317 117.708C175.431 117.708 175.545 117.708 175.658 117.708C175.772 117.701 175.883 117.698 175.99 117.698C176.424 117.676 176.741 117.534 176.941 117.27C177.14 117.007 177.24 116.668 177.24 116.255C177.24 115.885 177.172 115.6 177.037 115.401C176.901 115.201 176.727 115.062 176.513 114.984C176.307 114.906 176.089 114.866 175.861 114.866C175.683 114.866 175.53 114.866 175.402 114.866C175.274 114.859 175.139 114.863 174.996 114.877V116.768Z" fill="white"/>
<path d="M165.49 118.638C164.814 118.638 164.237 118.524 163.76 118.296C163.29 118.068 162.908 117.765 162.616 117.388C162.324 117.003 162.111 116.579 161.975 116.116C161.84 115.653 161.772 115.19 161.772 114.728C161.772 114.279 161.847 113.827 161.997 113.371C162.154 112.908 162.385 112.484 162.691 112.099C163.005 111.715 163.396 111.405 163.866 111.17C164.336 110.935 164.888 110.817 165.522 110.817C166.17 110.817 166.73 110.935 167.2 111.17C167.67 111.405 168.054 111.718 168.353 112.11C168.653 112.495 168.873 112.915 169.016 113.371C169.165 113.827 169.24 114.279 169.24 114.728C169.24 115.169 169.162 115.618 169.005 116.074C168.856 116.529 168.624 116.953 168.311 117.345C168.005 117.73 167.616 118.043 167.146 118.285C166.676 118.52 166.124 118.638 165.49 118.638ZM165.608 117.858C165.978 117.858 166.288 117.769 166.537 117.591C166.787 117.406 166.986 117.167 167.136 116.875C167.285 116.583 167.392 116.266 167.456 115.924C167.52 115.575 167.552 115.237 167.552 114.909C167.552 114.418 167.509 113.969 167.424 113.563C167.339 113.157 167.207 112.808 167.029 112.516C166.851 112.217 166.623 111.989 166.345 111.832C166.074 111.669 165.754 111.59 165.383 111.597C165.02 111.604 164.714 111.704 164.465 111.896C164.215 112.082 164.016 112.324 163.866 112.623C163.717 112.915 163.61 113.235 163.546 113.584C163.482 113.933 163.45 114.272 163.45 114.599C163.45 114.934 163.485 115.29 163.557 115.668C163.635 116.045 163.756 116.401 163.92 116.736C164.084 117.071 164.304 117.341 164.582 117.548C164.86 117.755 165.202 117.858 165.608 117.858Z" fill="white"/>
<path d="M152.437 117.761C152.6 117.754 152.736 117.732 152.842 117.697C152.956 117.661 153.042 117.579 153.099 117.451C153.163 117.323 153.195 117.116 153.195 116.831V112.74C153.195 112.547 153.199 112.362 153.206 112.184C153.22 112.006 153.231 111.871 153.238 111.778C153.124 111.785 152.981 111.792 152.81 111.8C152.64 111.8 152.515 111.803 152.437 111.81V110.988C152.942 110.98 153.448 110.977 153.954 110.977C154.459 110.977 154.965 110.973 155.471 110.966C156.097 110.959 156.642 111.041 157.105 111.212C157.575 111.383 157.935 111.646 158.184 112.003C158.441 112.359 158.562 112.822 158.547 113.391C158.54 113.676 158.473 113.958 158.344 114.235C158.216 114.506 158.028 114.755 157.778 114.983C157.529 115.204 157.216 115.386 156.838 115.528C156.461 115.671 156.019 115.749 155.513 115.763C155.357 115.77 155.218 115.774 155.097 115.774C154.983 115.774 154.865 115.77 154.744 115.763V116.703C154.744 116.903 154.741 117.091 154.733 117.27C154.726 117.448 154.716 117.583 154.701 117.675C154.78 117.668 154.879 117.665 155.001 117.665C155.122 117.658 155.239 117.654 155.353 117.654C155.474 117.647 155.56 117.643 155.61 117.643V118.466H152.437V117.761ZM154.744 114.962C154.822 114.969 154.901 114.976 154.979 114.983C155.058 114.99 155.139 114.994 155.225 114.994C155.617 114.994 155.934 114.93 156.176 114.802C156.425 114.666 156.607 114.474 156.721 114.225C156.835 113.968 156.892 113.658 156.892 113.295C156.892 112.939 156.842 112.654 156.742 112.441C156.649 112.227 156.528 112.07 156.379 111.97C156.229 111.864 156.072 111.796 155.909 111.768C155.745 111.732 155.595 111.714 155.46 111.714C155.31 111.714 155.182 111.732 155.075 111.768C154.969 111.803 154.887 111.881 154.83 112.003C154.773 112.124 154.744 112.309 154.744 112.558V114.962Z" fill="white"/>
<path d="M143.223 111.693C143.067 111.701 142.931 111.722 142.817 111.757C142.703 111.793 142.614 111.875 142.55 112.003C142.493 112.124 142.465 112.331 142.465 112.623V116.715C142.465 116.907 142.461 117.092 142.454 117.27C142.447 117.448 142.436 117.584 142.422 117.676C142.536 117.662 142.679 117.655 142.849 117.655C143.028 117.648 143.152 117.644 143.223 117.644V118.467H140.157V117.762C140.321 117.754 140.456 117.733 140.563 117.698C140.677 117.662 140.763 117.58 140.82 117.452C140.884 117.324 140.916 117.117 140.916 116.832V112.74C140.916 112.548 140.919 112.363 140.926 112.185C140.941 112.007 140.951 111.871 140.958 111.779C140.845 111.786 140.702 111.793 140.531 111.8C140.36 111.8 140.236 111.804 140.157 111.811V110.988H143.223V111.693Z" fill="white"/>
<path d="M130.425 118.466V117.761C130.589 117.754 130.724 117.732 130.831 117.697C130.945 117.661 131.03 117.579 131.087 117.451C131.151 117.323 131.183 117.116 131.183 116.831V112.74C131.183 112.547 131.187 112.362 131.194 112.184C131.208 112.006 131.219 111.871 131.226 111.778C131.112 111.785 130.97 111.792 130.799 111.799C130.628 111.799 130.503 111.803 130.425 111.81V110.987C130.916 110.98 131.408 110.977 131.899 110.977C132.398 110.977 132.893 110.973 133.384 110.966C134.239 110.959 134.915 111.119 135.414 111.447C135.92 111.767 136.155 112.255 136.119 112.91C136.105 113.117 136.041 113.32 135.927 113.519C135.813 113.712 135.642 113.886 135.414 114.043C135.193 114.2 134.915 114.324 134.581 114.417V114.427C135.293 114.541 135.816 114.78 136.151 115.143C136.486 115.499 136.653 115.898 136.653 116.34C136.653 116.803 136.539 117.195 136.311 117.515C136.091 117.828 135.784 118.067 135.393 118.231C135.001 118.388 134.556 118.466 134.057 118.466H130.425ZM132.69 117.707C132.818 117.707 132.939 117.707 133.053 117.707C133.167 117.707 133.281 117.707 133.395 117.707C133.509 117.7 133.619 117.697 133.726 117.697C134.16 117.675 134.477 117.536 134.677 117.28C134.876 117.024 134.976 116.7 134.976 116.308C134.976 115.98 134.908 115.724 134.773 115.539C134.638 115.346 134.463 115.211 134.249 115.133C134.043 115.054 133.826 115.015 133.598 115.015C133.42 115.015 133.267 115.015 133.138 115.015C133.01 115.015 132.875 115.019 132.732 115.026V116.767C132.732 116.959 132.729 117.141 132.722 117.312C132.715 117.483 132.704 117.615 132.69 117.707ZM132.732 114.267L133.288 114.257C133.587 114.249 133.822 114.182 133.993 114.054C134.171 113.925 134.296 113.754 134.367 113.541C134.445 113.32 134.485 113.081 134.485 112.825C134.485 112.54 134.428 112.319 134.314 112.163C134.2 111.999 134.057 111.881 133.886 111.81C133.715 111.739 133.537 111.707 133.352 111.714C133.238 111.714 133.135 111.732 133.042 111.767C132.95 111.803 132.875 111.885 132.818 112.013C132.761 112.134 132.732 112.334 132.732 112.611V114.267Z" fill="white"/>
<path d="M123.224 118.638C122.547 118.638 121.97 118.524 121.493 118.296C121.023 118.068 120.642 117.765 120.35 117.388C120.058 117.003 119.844 116.579 119.709 116.116C119.574 115.653 119.506 115.19 119.506 114.728C119.506 114.279 119.581 113.827 119.73 113.371C119.887 112.908 120.118 112.484 120.425 112.099C120.738 111.715 121.13 111.405 121.6 111.17C122.07 110.935 122.622 110.817 123.256 110.817C123.904 110.817 124.463 110.935 124.933 111.17C125.403 111.405 125.788 111.718 126.087 112.11C126.386 112.495 126.607 112.915 126.749 113.371C126.899 113.827 126.974 114.279 126.974 114.728C126.974 115.169 126.895 115.618 126.739 116.074C126.589 116.529 126.358 116.953 126.044 117.345C125.738 117.73 125.35 118.043 124.88 118.285C124.41 118.52 123.858 118.638 123.224 118.638ZM123.341 117.858C123.712 117.858 124.021 117.769 124.271 117.591C124.52 117.406 124.719 117.167 124.869 116.875C125.019 116.583 125.125 116.266 125.189 115.924C125.254 115.575 125.286 115.237 125.286 114.909C125.286 114.418 125.243 113.969 125.157 113.563C125.072 113.157 124.94 112.808 124.762 112.516C124.584 112.217 124.356 111.989 124.078 111.832C123.808 111.669 123.487 111.59 123.117 111.597C122.754 111.604 122.447 111.704 122.198 111.896C121.949 112.082 121.749 112.324 121.6 112.623C121.45 112.915 121.343 113.235 121.279 113.584C121.215 113.933 121.183 114.272 121.183 114.599C121.183 114.934 121.219 115.29 121.29 115.668C121.368 116.045 121.489 116.401 121.653 116.736C121.817 117.071 122.038 117.341 122.316 117.548C122.593 117.755 122.935 117.858 123.341 117.858Z" fill="white"/>
<path d="M109.367 118.467V117.762C109.573 117.712 109.78 117.598 109.987 117.42C110.193 117.235 110.428 116.967 110.692 116.618L111.931 114.963C111.646 114.599 111.361 114.236 111.076 113.873C110.791 113.51 110.503 113.146 110.211 112.783C110.097 112.634 109.994 112.47 109.901 112.292C109.809 112.106 109.734 111.936 109.677 111.779C109.563 111.786 109.463 111.793 109.378 111.8C109.299 111.8 109.221 111.804 109.143 111.811V110.988H112.39V111.693H112.284C112.063 111.693 111.91 111.725 111.824 111.79C111.739 111.854 111.707 111.943 111.728 112.057C111.756 112.163 111.824 112.285 111.931 112.42C112.095 112.619 112.255 112.819 112.412 113.018C112.568 113.218 112.725 113.421 112.882 113.627L113.694 112.505C113.843 112.299 113.961 112.149 114.046 112.057C114.139 111.957 114.231 111.864 114.324 111.779C114.21 111.786 114.068 111.793 113.897 111.8C113.726 111.8 113.601 111.804 113.523 111.811V110.988H115.948V111.693C115.784 111.715 115.62 111.772 115.457 111.864C115.3 111.957 115.14 112.089 114.976 112.26C114.812 112.423 114.634 112.637 114.442 112.901L113.416 114.3C113.644 114.585 113.868 114.87 114.089 115.155C114.31 115.44 114.531 115.725 114.751 116.01C114.979 116.294 115.204 116.579 115.424 116.864C115.546 117.014 115.656 117.156 115.756 117.292C115.855 117.427 115.93 117.555 115.98 117.676C116.101 117.662 116.187 117.655 116.236 117.655C116.286 117.648 116.347 117.644 116.418 117.644V118.467H113.224V117.762C113.487 117.762 113.658 117.73 113.736 117.665C113.815 117.601 113.833 117.516 113.79 117.409C113.754 117.295 113.683 117.17 113.576 117.035C113.398 116.807 113.217 116.579 113.031 116.351C112.853 116.116 112.672 115.885 112.487 115.657C112.33 115.871 112.173 116.088 112.016 116.309C111.86 116.522 111.703 116.736 111.546 116.95C111.397 117.149 111.283 117.299 111.204 117.398C111.126 117.498 111.044 117.591 110.959 117.676C111.08 117.669 111.219 117.662 111.375 117.655C111.532 117.648 111.646 117.644 111.717 117.644V118.467H109.367Z" fill="white"/>
<path d="M101.352 118.638C101.124 118.638 100.91 118.591 100.711 118.499C100.512 118.413 100.351 118.292 100.23 118.136C100.109 117.972 100.049 117.787 100.049 117.58C100.049 117.359 100.113 117.156 100.241 116.971C100.369 116.786 100.576 116.693 100.861 116.693C101.103 116.693 101.284 116.761 101.405 116.896C101.534 117.024 101.598 117.178 101.598 117.356C101.598 117.434 101.584 117.512 101.555 117.591C101.534 117.669 101.495 117.747 101.438 117.826C101.452 117.847 101.47 117.865 101.491 117.879C101.519 117.893 101.551 117.9 101.587 117.9C101.772 117.9 101.968 117.762 102.175 117.484C102.239 117.391 102.299 117.295 102.356 117.195C102.413 117.096 102.474 116.975 102.538 116.832C102.602 116.683 102.677 116.501 102.762 116.287C102.848 116.067 102.947 115.799 103.061 115.486C103.183 115.166 103.325 114.781 103.489 114.332C103.653 113.884 103.845 113.356 104.066 112.751C104.144 112.552 104.219 112.366 104.29 112.196C104.361 112.025 104.443 111.882 104.536 111.768L103.713 111.811V110.988H106.031V111.693C105.868 111.693 105.725 111.722 105.604 111.779C105.483 111.829 105.373 111.928 105.273 112.078C105.173 112.22 105.07 112.431 104.963 112.708L103.403 116.821C103.204 117.341 102.99 117.733 102.762 117.997C102.534 118.253 102.299 118.424 102.057 118.509C101.822 118.595 101.587 118.638 101.352 118.638ZM102.773 116.789L100.241 112.826C100.141 112.662 100.049 112.477 99.9632 112.27C99.8778 112.057 99.835 111.893 99.835 111.779L99.3115 111.811V110.988H102.463V111.693C102.257 111.679 102.086 111.701 101.95 111.757C101.815 111.814 101.733 111.907 101.705 112.035C101.676 112.156 101.719 112.317 101.833 112.516L102.72 114.054C102.826 114.233 102.951 114.432 103.093 114.653C103.236 114.874 103.339 115.044 103.403 115.166L102.773 116.789Z" fill="white"/>
<path d="M95.1111 113.061C95.1111 112.669 95.0434 112.377 94.9081 112.185C94.7728 111.985 94.6018 111.85 94.3953 111.779C94.1959 111.708 94 111.676 93.8077 111.683L93.1133 111.693C92.9637 111.693 92.8355 111.715 92.7287 111.757C92.6218 111.793 92.5399 111.879 92.4829 112.014C92.426 112.142 92.3975 112.345 92.3975 112.623V114.119L93.0385 114.097C93.7365 114.076 94.2991 114.122 94.7265 114.236C95.1609 114.35 95.4921 114.514 95.72 114.728C95.9551 114.934 96.1118 115.173 96.1901 115.443C96.2756 115.714 96.3183 115.999 96.3183 116.298C96.3183 116.768 96.2044 117.167 95.9764 117.495C95.7557 117.815 95.4494 118.057 95.0577 118.221C94.6659 118.385 94.2208 118.467 93.7222 118.467H90.0898V117.762C90.2537 117.754 90.389 117.733 90.4958 117.698C90.6098 117.662 90.6952 117.58 90.7522 117.452C90.8163 117.324 90.8484 117.117 90.8484 116.832V112.74C90.8484 112.548 90.8519 112.363 90.8591 112.185C90.8733 112.007 90.884 111.871 90.8911 111.779C90.7771 111.786 90.6347 111.793 90.4638 111.8C90.2928 111.8 90.1682 111.804 90.0898 111.811V110.988H95.7521L95.8055 113.061H95.1111ZM92.3975 116.768C92.3975 116.96 92.3939 117.142 92.3868 117.313C92.3797 117.484 92.369 117.616 92.3547 117.708C92.4829 117.708 92.604 117.708 92.718 117.708C92.8319 117.708 92.9459 117.708 93.0599 117.708C93.1738 117.701 93.2842 117.698 93.391 117.698C93.8255 117.676 94.1424 117.534 94.3419 117.27C94.5413 117.007 94.641 116.668 94.641 116.255C94.641 115.885 94.5733 115.6 94.438 115.401C94.3027 115.201 94.1282 115.062 93.9145 114.984C93.708 114.906 93.4908 114.866 93.2628 114.866C93.0848 114.866 92.9316 114.866 92.8034 114.866C92.6752 114.859 92.5399 114.863 92.3975 114.877V116.768Z" fill="white"/>
<path d="M81.7322 111.693C81.5755 111.701 81.4402 111.722 81.3262 111.757C81.2122 111.793 81.1232 111.875 81.0591 112.003C81.0021 112.124 80.9736 112.331 80.9736 112.623V116.715C80.9736 116.907 80.9701 117.092 80.963 117.27C80.9558 117.448 80.9452 117.584 80.9309 117.676C81.0449 117.662 81.1873 117.655 81.3583 117.655C81.5363 117.648 81.6609 117.644 81.7322 117.644V118.467H78.666V117.762C78.8298 117.754 78.9651 117.733 79.072 117.698C79.1859 117.662 79.2714 117.58 79.3284 117.452C79.3925 117.324 79.4245 117.117 79.4245 116.832V112.74C79.4245 112.548 79.4281 112.363 79.4352 112.185C79.4495 112.007 79.4602 111.871 79.4673 111.779C79.3533 111.786 79.2109 111.793 79.0399 111.8C78.869 111.8 78.7444 111.804 78.666 111.811V110.988H81.7322V111.693ZM86.3474 111.693C86.1908 111.701 86.0554 111.722 85.9415 111.757C85.8275 111.793 85.7385 111.875 85.6744 112.003C85.6174 112.124 85.5889 112.331 85.5889 112.623V116.715C85.5889 116.907 85.5854 117.092 85.5782 117.27C85.5711 117.448 85.5604 117.584 85.5462 117.676C85.6601 117.662 85.8026 117.655 85.9735 117.655C86.1516 117.648 86.2762 117.644 86.3474 117.644V118.467H83.2813V117.762C83.4451 117.754 83.5804 117.733 83.6873 117.698C83.8012 117.662 83.8867 117.58 83.9437 117.452C84.0078 117.324 84.0398 117.117 84.0398 116.832V112.74C84.0398 112.548 84.0434 112.363 84.0505 112.185C84.0647 112.007 84.0754 111.871 84.0825 111.779C83.9686 111.786 83.8261 111.793 83.6552 111.8C83.4843 111.8 83.3596 111.804 83.2813 111.811V110.988H86.3474V111.693ZM84.8624 111.309L85.3752 111.822L80.0442 118.157L79.4993 117.612L84.8624 111.309Z" fill="white"/>
<path d="M68.9316 118.466V117.761C69.0955 117.754 69.2308 117.732 69.3376 117.697C69.4516 117.661 69.537 117.579 69.594 117.451C69.6581 117.323 69.6902 117.116 69.6902 116.831V112.74C69.6902 112.547 69.6937 112.362 69.7009 112.184C69.7151 112.006 69.7258 111.871 69.7329 111.778C69.6189 111.785 69.4765 111.792 69.3056 111.799C69.1346 111.799 69.01 111.803 68.9316 111.81V110.987C69.4231 110.98 69.9145 110.977 70.406 110.977C70.9045 110.977 71.3995 110.973 71.891 110.966C72.7456 110.959 73.4223 111.119 73.9208 111.447C74.4265 111.767 74.6616 112.255 74.6259 112.91C74.6117 113.117 74.5476 113.32 74.4336 113.519C74.3197 113.712 74.1487 113.886 73.9208 114.043C73.7 114.2 73.4223 114.324 73.0875 114.417V114.427C73.7998 114.541 74.3232 114.78 74.658 115.143C74.9927 115.499 75.1601 115.898 75.1601 116.34C75.1601 116.803 75.0462 117.195 74.8182 117.515C74.5974 117.828 74.2912 118.067 73.8995 118.231C73.5077 118.388 73.0626 118.466 72.564 118.466H68.9316ZM71.1965 117.707C71.3247 117.707 71.4458 117.707 71.5598 117.707C71.6737 117.707 71.7877 117.707 71.9017 117.707C72.0156 117.7 72.126 117.697 72.2328 117.697C72.6673 117.675 72.9842 117.536 73.1837 117.28C73.3831 117.024 73.4828 116.7 73.4828 116.308C73.4828 115.98 73.4151 115.724 73.2798 115.539C73.1445 115.346 72.97 115.211 72.7563 115.133C72.5498 115.054 72.3326 115.015 72.1046 115.015C71.9266 115.015 71.7734 115.015 71.6452 115.015C71.517 115.015 71.3817 115.019 71.2393 115.026V116.767C71.2393 116.959 71.2357 117.141 71.2286 117.312C71.2215 117.483 71.2108 117.615 71.1965 117.707ZM71.2393 114.267L71.7948 114.257C72.094 114.249 72.329 114.182 72.4999 114.054C72.678 113.925 72.8026 113.754 72.8739 113.541C72.9522 113.32 72.9914 113.081 72.9914 112.825C72.9914 112.54 72.9344 112.319 72.8204 112.163C72.7065 111.999 72.564 111.881 72.3931 111.81C72.2222 111.739 72.0441 111.707 71.8589 111.714C71.745 111.714 71.6417 111.732 71.5491 111.767C71.4565 111.803 71.3817 111.885 71.3247 112.013C71.2678 112.134 71.2393 112.334 71.2393 112.611V114.267Z" fill="white"/>
<path d="M61.7305 118.638C61.0539 118.638 60.477 118.524 59.9998 118.296C59.5297 118.068 59.1487 117.765 58.8567 117.388C58.5647 117.003 58.351 116.579 58.2157 116.116C58.0804 115.653 58.0127 115.19 58.0127 114.728C58.0127 114.279 58.0875 113.827 58.237 113.371C58.3937 112.908 58.6252 112.484 58.9315 112.099C59.2449 111.715 59.6366 111.405 60.1067 111.17C60.5767 110.935 61.1287 110.817 61.7626 110.817C62.4107 110.817 62.9698 110.935 63.4399 111.17C63.91 111.405 64.2946 111.718 64.5937 112.11C64.8929 112.495 65.1137 112.915 65.2561 113.371C65.4057 113.827 65.4805 114.279 65.4805 114.728C65.4805 115.169 65.4021 115.618 65.2454 116.074C65.0958 116.529 64.8644 116.953 64.551 117.345C64.2447 117.73 63.8566 118.043 63.3865 118.285C62.9164 118.52 62.3644 118.638 61.7305 118.638ZM61.8481 117.858C62.2184 117.858 62.5282 117.769 62.7775 117.591C63.0268 117.406 63.2262 117.167 63.3758 116.875C63.5254 116.583 63.6322 116.266 63.6963 115.924C63.7604 115.575 63.7925 115.237 63.7925 114.909C63.7925 114.418 63.7497 113.969 63.6643 113.563C63.5788 113.157 63.447 112.808 63.269 112.516C63.0909 112.217 62.863 111.989 62.5852 111.832C62.3146 111.669 61.9941 111.59 61.6237 111.597C61.2605 111.604 60.9542 111.704 60.7049 111.896C60.4557 112.082 60.2562 112.324 60.1067 112.623C59.9571 112.915 59.8503 113.235 59.7862 113.584C59.7221 113.933 59.69 114.272 59.69 114.599C59.69 114.934 59.7256 115.29 59.7968 115.668C59.8752 116.045 59.9963 116.401 60.1601 116.736C60.3239 117.071 60.5447 117.341 60.8225 117.548C61.1002 117.755 61.4421 117.858 61.8481 117.858Z" fill="white"/>
<path d="M48.6826 117.761C48.8464 117.754 48.9818 117.732 49.0886 117.697C49.2025 117.661 49.288 117.579 49.345 117.451C49.4091 117.323 49.4411 117.116 49.4411 116.831V112.74C49.4411 112.547 49.4447 112.362 49.4518 112.184C49.4661 112.006 49.4768 111.871 49.4839 111.778C49.3699 111.785 49.2275 111.792 49.0565 111.8C48.8856 111.8 48.761 111.803 48.6826 111.81V110.988C49.1883 110.98 49.694 110.977 50.1997 110.977C50.7054 110.977 51.211 110.973 51.7167 110.966C52.3435 110.959 52.8884 111.041 53.3513 111.212C53.8214 111.383 54.1811 111.646 54.4303 112.003C54.6867 112.359 54.8078 112.822 54.7936 113.391C54.7865 113.676 54.7188 113.958 54.5906 114.235C54.4624 114.506 54.2736 114.755 54.0244 114.983C53.7751 115.204 53.4617 115.386 53.0842 115.528C52.7067 115.671 52.2651 115.749 51.7595 115.763C51.6028 115.77 51.4639 115.774 51.3428 115.774C51.2288 115.774 51.1113 115.77 50.9903 115.763V116.703C50.9903 116.903 50.9867 117.091 50.9796 117.27C50.9724 117.448 50.9618 117.583 50.9475 117.675C51.0259 117.668 51.1256 117.665 51.2467 117.665C51.3677 117.658 51.4853 117.654 51.5992 117.654C51.7203 117.647 51.8058 117.643 51.8556 117.643V118.466H48.6826V117.761ZM50.9903 114.962C51.0686 114.969 51.1469 114.976 51.2253 114.983C51.3036 114.99 51.3855 114.994 51.471 114.994C51.8627 114.994 52.1797 114.93 52.4218 114.802C52.6711 114.666 52.8527 114.474 52.9667 114.225C53.0807 113.968 53.1376 113.658 53.1376 113.295C53.1376 112.939 53.0878 112.654 52.9881 112.441C52.8955 112.227 52.7744 112.07 52.6248 111.97C52.4753 111.864 52.3186 111.796 52.1548 111.768C51.9909 111.732 51.8414 111.714 51.706 111.714C51.5565 111.714 51.4283 111.732 51.3214 111.768C51.2146 111.803 51.1327 111.881 51.0757 112.003C51.0187 112.124 50.9903 112.309 50.9903 112.558V114.962Z" fill="white"/>
<path d="M40.5064 118.638C40.2785 118.638 40.0648 118.591 39.8654 118.499C39.6659 118.413 39.5057 118.292 39.3846 118.136C39.2635 117.972 39.203 117.787 39.203 117.58C39.203 117.359 39.2671 117.156 39.3953 116.971C39.5235 116.786 39.73 116.693 40.0149 116.693C40.2571 116.693 40.4387 116.761 40.5598 116.896C40.688 117.024 40.7521 117.178 40.7521 117.356C40.7521 117.434 40.7378 117.512 40.7094 117.591C40.688 117.669 40.6488 117.747 40.5918 117.826C40.6061 117.847 40.6239 117.865 40.6453 117.879C40.6737 117.893 40.7058 117.9 40.7414 117.9C40.9266 117.9 41.1224 117.762 41.329 117.484C41.3931 117.391 41.4536 117.295 41.5106 117.195C41.5676 117.096 41.6281 116.975 41.6922 116.832C41.7563 116.683 41.8311 116.501 41.9166 116.287C42.0021 116.067 42.1018 115.799 42.2157 115.486C42.3368 115.166 42.4793 114.781 42.6431 114.332C42.8069 113.884 42.9992 113.356 43.22 112.751C43.2983 112.552 43.3731 112.366 43.4443 112.196C43.5156 112.025 43.5975 111.882 43.69 111.768L42.8674 111.811V110.988H45.1857V111.693C45.0219 111.693 44.8795 111.722 44.7584 111.779C44.6373 111.829 44.5269 111.928 44.4272 112.078C44.3275 112.22 44.2242 112.431 44.1174 112.708L42.5576 116.821C42.3582 117.341 42.1445 117.733 41.9166 117.997C41.6887 118.253 41.4536 118.424 41.2115 118.509C40.9764 118.595 40.7414 118.638 40.5064 118.638ZM41.9273 116.789L39.3953 112.826C39.2956 112.662 39.203 112.477 39.1175 112.27C39.032 112.057 38.9893 111.893 38.9893 111.779L38.4658 111.811V110.988H41.6175V111.693C41.4109 111.679 41.24 111.701 41.1046 111.757C40.9693 111.814 40.8874 111.907 40.8589 112.035C40.8304 112.156 40.8732 112.317 40.9871 112.516L41.8739 114.054C41.9807 114.233 42.1053 114.432 42.2478 114.653C42.3902 114.874 42.4935 115.044 42.5576 115.166L41.9273 116.789Z" fill="white"/>
<path d="M34.2654 113.061C34.2654 112.669 34.1977 112.377 34.0624 112.185C33.9271 111.985 33.7561 111.85 33.5496 111.779C33.3502 111.708 33.1543 111.676 32.962 111.683L32.2676 111.693C32.118 111.693 31.9898 111.715 31.883 111.757C31.7761 111.793 31.6942 111.879 31.6372 112.014C31.5803 112.142 31.5518 112.345 31.5518 112.623V114.119L32.1928 114.097C32.8908 114.076 33.4534 114.122 33.8808 114.236C34.3152 114.35 34.6464 114.514 34.8743 114.728C35.1094 114.934 35.2661 115.173 35.3444 115.443C35.4299 115.714 35.4726 115.999 35.4726 116.298C35.4726 116.768 35.3587 117.167 35.1307 117.495C34.91 117.815 34.6037 118.057 34.212 118.221C33.8202 118.385 33.3751 118.467 32.8765 118.467H29.2441V117.762C29.408 117.754 29.5433 117.733 29.6501 117.698C29.7641 117.662 29.8495 117.58 29.9065 117.452C29.9706 117.324 30.0027 117.117 30.0027 116.832V112.74C30.0027 112.548 30.0062 112.363 30.0134 112.185C30.0276 112.007 30.0383 111.871 30.0454 111.779C29.9314 111.786 29.789 111.793 29.6181 111.8C29.4471 111.8 29.3225 111.804 29.2441 111.811V110.988H34.9064L34.9598 113.061H34.2654ZM31.5518 116.768C31.5518 116.96 31.5482 117.142 31.5411 117.313C31.534 117.484 31.5233 117.616 31.509 117.708C31.6372 117.708 31.7583 117.708 31.8723 117.708C31.9862 117.708 32.1002 117.708 32.2142 117.708C32.3281 117.701 32.4385 117.698 32.5453 117.698C32.9798 117.676 33.2967 117.534 33.4962 117.27C33.6956 117.007 33.7953 116.668 33.7953 116.255C33.7953 115.885 33.7276 115.6 33.5923 115.401C33.457 115.201 33.2825 115.062 33.0688 114.984C32.8623 114.906 32.6451 114.866 32.4171 114.866C32.2391 114.866 32.0859 114.866 31.9577 114.866C31.8295 114.859 31.6942 114.863 31.5518 114.877V116.768Z" fill="white"/>
<path d="M209.091 81.1546V86.503H192.115V81.1546H209.091ZM197.433 83.8288L196.051 92.212L193.106 88.9669H210.203V95.0965H188.389L190.041 83.8288L188.389 72.561H210.053V78.6907H193.106L196.051 75.4456L197.433 83.8288Z" fill="white"/>
<path d="M183.867 85.3315C183.627 87.3947 182.916 89.1976 181.734 90.74C180.572 92.2824 179.029 93.4843 177.106 94.3457C175.183 95.207 172.98 95.6377 170.496 95.6377C167.812 95.6377 165.468 95.1469 163.465 94.1654C161.462 93.1838 159.899 91.8117 158.778 90.0489C157.676 88.2661 157.125 86.1928 157.125 83.8291C157.125 81.4654 157.676 79.4021 158.778 77.6394C159.899 75.8565 161.462 74.4744 163.465 73.4928C165.468 72.5113 167.812 72.0205 170.496 72.0205C172.98 72.0205 175.183 72.4512 177.106 73.3125C179.029 74.1739 180.572 75.3758 181.734 76.9182C182.916 78.4606 183.627 80.2635 183.867 82.3267H176.085C175.905 81.5455 175.574 80.8845 175.093 80.3436C174.613 79.7827 173.982 79.3621 173.2 79.0816C172.439 78.7812 171.538 78.6309 170.496 78.6309C169.334 78.6309 168.333 78.8412 167.491 79.2619C166.67 79.6625 166.039 80.2535 165.598 81.0347C165.158 81.8159 164.937 82.7474 164.937 83.8291C164.937 84.9108 165.158 85.8423 165.598 86.6235C166.039 87.3847 166.67 87.9756 167.491 88.3963C168.333 88.817 169.334 89.0273 170.496 89.0273C171.538 89.0273 172.439 88.8971 173.2 88.6367C173.982 88.3562 174.613 87.9456 175.093 87.4047C175.574 86.8439 175.905 86.1528 176.085 85.3315H183.867Z" fill="white"/>
<path d="M143.904 72.561H151.657V95.0965H143.904V72.561Z" fill="white"/>
<path d="M126.545 91.5509H123.36L131.383 72.561H139.496L129.279 95.0965H120.446L110.229 72.561H118.523L126.545 91.5509Z" fill="white"/>
<path d="M89.6453 82.2062H97.2172C97.9784 82.2062 98.5694 82.0259 98.99 81.6654C99.4107 81.3048 99.621 80.784 99.621 80.1029C99.621 79.4218 99.4107 78.901 98.99 78.5405C98.5694 78.1799 97.9784 77.9996 97.2172 77.9996H88.5636L92.0491 74.5141V95.0965H84.2969V72.561H98.4191C100.222 72.561 101.794 72.8815 103.137 73.5225C104.499 74.1435 105.55 75.0149 106.292 76.1367C107.053 77.2584 107.433 78.5805 107.433 80.1029C107.433 81.5852 107.053 82.8973 106.292 84.0391C105.55 85.1609 104.499 86.0322 103.137 86.6532C101.794 87.2742 100.222 87.5847 98.4191 87.5847H89.6453V82.2062ZM92.2895 84.5499H100.853L108.335 95.0965H99.4708L92.2895 84.5499Z" fill="white"/>
<path d="M77.313 81.1546V86.503H60.3362V81.1546H77.313ZM65.6546 83.8288L64.2724 92.212L61.3278 88.9669H78.4247V95.0965H56.6104L58.263 83.8288L56.6104 72.561H78.2745V78.6907H61.3278L64.2724 75.4456L65.6546 83.8288Z" fill="white"/>
<path d="M27.7568 87.6752H35.6292C35.7094 88.1159 35.9397 88.4965 36.3203 88.817C36.7009 89.1174 37.2217 89.3578 37.8828 89.5381C38.5438 89.6983 39.3351 89.7785 40.2565 89.7785C41.4584 89.7785 42.3899 89.6583 43.0509 89.4179C43.732 89.1775 44.0725 88.7869 44.0725 88.2461C44.0725 87.8855 43.8822 87.585 43.5016 87.3446C43.121 87.0842 42.3398 86.914 41.1579 86.8338L37.4321 86.5935C34.0467 86.3731 31.6029 85.652 30.1005 84.43C28.5982 83.2081 27.847 81.5956 27.847 79.5924C27.847 77.9098 28.3277 76.5076 29.2892 75.3858C30.2508 74.264 31.5929 73.4227 33.3156 72.8618C35.0583 72.3009 37.0915 72.0205 39.4152 72.0205C41.6788 72.0205 43.6819 72.341 45.4247 72.982C47.1874 73.603 48.5796 74.4844 49.6012 75.6262C50.6429 76.768 51.2138 78.1001 51.3139 79.6225H43.4415C43.3814 79.2619 43.1811 78.9514 42.8406 78.691C42.5201 78.4306 42.0594 78.2303 41.4584 78.0901C40.8575 77.9498 40.1263 77.8797 39.265 77.8797C38.1632 77.8797 37.2919 77.9899 36.6508 78.2103C36.0299 78.4306 35.7194 78.7912 35.7194 79.292C35.7194 79.6325 35.8997 79.923 36.2602 80.1633C36.6408 80.4037 37.362 80.564 38.4236 80.6441L42.6303 80.9145C44.8337 81.0547 46.6165 81.3853 47.9787 81.9061C49.3408 82.4069 50.3324 83.108 50.9534 84.0094C51.5944 84.9108 51.9149 86.0226 51.9149 87.3446C51.9149 89.0073 51.4241 90.4595 50.4426 91.7015C49.461 92.9435 48.0788 93.915 46.296 94.6161C44.5333 95.2972 42.47 95.6377 40.1063 95.6377C37.6624 95.6377 35.5191 95.3072 33.6762 94.6461C31.8333 93.9851 30.391 93.0536 29.3493 91.8517C28.3277 90.6498 27.7969 89.2577 27.7568 87.6752Z" fill="white"/>
</svg>
