<svg width="86" height="48" viewBox="0 0 86 48" fill="none" xmlns="http://www.w3.org/2000/svg">
<path fill-rule="evenodd" clip-rule="evenodd" d="M45.5304 27.5745C45.9386 27.5745 45.8025 24.2574 45.8025 23.1583C45.8025 11.1076 35.8744 1.33863 23.6274 1.33863C11.3804 1.33863 1.45224 11.1076 1.45224 23.1583C1.45224 29.8612 4.52385 35.8581 9.35761 39.8607C9.38137 40.4785 9.4335 41.0893 9.51276 41.6916C3.79239 37.4669 0.0917969 30.7378 0.0917969 23.1583C0.0917969 10.3683 10.629 0 23.6274 0C36.6257 0 47.163 10.3683 47.163 23.1583C47.163 24.7723 47.0742 26.0536 46.7548 27.5745C46.2897 27.5745 46.0746 27.5745 45.5304 27.5745Z" fill="#091017"/>
<path fill-rule="evenodd" clip-rule="evenodd" d="M44.4734 27.5696C44.4734 27.5696 44.6079 25.2833 44.5279 23.0085C44.5279 11.7352 35.1103 2.59651 23.4932 2.59651C11.876 2.59651 2.45844 11.7352 2.45844 23.0085C2.45844 29.2789 4.65214 34.4499 9.23731 38.1942C9.25985 38.7722 9.29662 39.3791 9.3718 39.9426C3.94562 35.9904 1.16797 30.099 1.16797 23.0085C1.16797 11.0436 11.1633 1.34424 23.4932 1.34424C35.823 1.34424 45.8183 11.0436 45.8183 23.0085C45.8183 24.5183 45.9868 26.1468 45.6838 27.5696C45.2426 27.5696 44.4734 27.5696 44.4734 27.5696Z" fill="#02ADF9"/>
<path d="M14.4826 14.1213L12.1963 12.5074H15.0206L12.5998 8.87621L15.8275 10.8935L17.1724 7.80029L17.9793 11.4315L20.5346 10.4901L19.3242 12.5074H22.4175L20.2656 14.1213" stroke="#E5181D" stroke-width="0.268978"/>
<path d="M14.8857 13.3139L15.9617 14.2553H18.3825L19.8618 13.3139H18.3825L18.6514 12.1035L17.5755 12.6415L17.1721 11.0276L16.9031 12.6415L15.6927 11.969L15.9617 13.3139H14.8857Z" fill="#E5181D"/>
<path d="M11.6582 39.2703H85.0892V41.6911H11.6582V39.2703Z" fill="#E5181D"/>
<path fill-rule="evenodd" clip-rule="evenodd" d="M84.5513 39.8082H12.1962V41.1531H84.5513V39.8082ZM11.6582 39.2703V41.6911H85.0892V39.2703H11.6582Z" fill="#091017"/>
<path d="M36.7549 16.6765H40.0859V26.3597H36.7549V16.6765Z" fill="#091017"/>
<path d="M32.8803 23.9325L31.9766 24.152V16.6765H35.2043V26.3597H31.0341L26.2312 18.8972L27.135 18.6777V26.3597H23.9072V16.6765H28.2066L32.8803 23.9325Z" fill="#091017"/>
<path d="M15.6347 21.9184C15.6347 22.2713 15.695 22.5768 15.8155 22.835C15.9446 23.0846 16.1383 23.2783 16.3965 23.416C16.6547 23.5537 16.9861 23.6226 17.3906 23.6226C17.8038 23.6226 18.1395 23.5581 18.3977 23.4289C18.6559 23.2912 18.8453 23.0933 18.9658 22.835C19.0863 22.5768 19.1465 22.2713 19.1465 21.9184V16.6765H22.4775V22.0991C22.4775 23.0029 22.2667 23.7904 21.8449 24.4618C21.4231 25.1332 20.8292 25.6582 20.0632 26.037C19.3057 26.4071 18.4149 26.5921 17.3906 26.5921C16.375 26.5921 15.4841 26.4071 14.7181 26.037C13.9606 25.6582 13.3667 25.1332 12.9363 24.4618C12.5146 23.7904 12.3037 23.0029 12.3037 22.0991V16.6765H15.6347V21.9184Z" fill="#091017"/>
<path d="M83.0711 44.6117C83.008 44.6145 82.9535 44.6232 82.9075 44.6375C82.8616 44.6518 82.8258 44.6848 82.8 44.7365C82.777 44.7853 82.7655 44.8685 82.7655 44.9861V46.6344C82.7655 46.7119 82.7641 46.7865 82.7612 46.8582C82.7584 46.9299 82.754 46.9844 82.7483 47.0217C82.7942 47.016 82.8516 47.0131 82.9205 47.0131C82.9922 47.0102 83.0424 47.0088 83.0711 47.0088V47.3402H81.8359V47.0562C81.9019 47.0533 81.9564 47.0447 81.9995 47.0303C82.0454 47.016 82.0798 46.983 82.1028 46.9313C82.1286 46.8797 82.1415 46.7965 82.1415 46.6817V45.0334C82.1415 44.956 82.1429 44.8814 82.1458 44.8096C82.1515 44.7379 82.1558 44.6834 82.1587 44.6461C82.1128 44.649 82.0554 44.6518 81.9866 44.6547C81.9177 44.6547 81.8675 44.6561 81.8359 44.659V44.3276H83.0711V44.6117ZM84.9303 44.6117C84.8671 44.6145 84.8126 44.6232 84.7667 44.6375C84.7208 44.6518 84.685 44.6848 84.6591 44.7365C84.6362 44.7853 84.6247 44.8685 84.6247 44.9861V46.6344C84.6247 46.7119 84.6233 46.7865 84.6204 46.8582C84.6175 46.9299 84.6132 46.9844 84.6075 47.0217C84.6534 47.016 84.7108 47.0131 84.7796 47.0131C84.8514 47.0102 84.9016 47.0088 84.9303 47.0088V47.3402H83.6951V47.0562C83.7611 47.0533 83.8156 47.0447 83.8587 47.0303C83.9046 47.016 83.939 46.983 83.9619 46.9313C83.9878 46.8797 84.0007 46.7965 84.0007 46.6817V45.0334C84.0007 44.956 84.0021 44.8814 84.005 44.8096C84.0107 44.7379 84.015 44.6834 84.0179 44.6461C83.972 44.649 83.9146 44.6518 83.8457 44.6547C83.7769 44.6547 83.7267 44.6561 83.6951 44.659V44.3276H84.9303V44.6117ZM84.3321 44.4567L84.5386 44.6633L82.3911 47.2154L82.1716 46.9959L84.3321 44.4567Z" fill="#091017"/>
<path d="M80.1858 45.3003C80.1858 45.1453 80.1642 45.0177 80.1212 44.9172C80.0782 44.8139 80.0165 44.7379 79.9362 44.6891C79.8587 44.6375 79.7654 44.6131 79.6564 44.616H79.4498V46.6344C79.4498 46.7119 79.4484 46.7865 79.4455 46.8582C79.4427 46.9299 79.4384 46.9844 79.4326 47.0217C79.4814 47.016 79.5431 47.0131 79.6177 47.0131C79.6952 47.0102 79.7482 47.0088 79.7769 47.0088V47.3402H78.5203V47.0562C78.5862 47.0533 78.6408 47.0447 78.6838 47.0303C78.7297 47.016 78.7641 46.983 78.7871 46.9313C78.8129 46.8797 78.8258 46.7965 78.8258 46.6817V44.6203H78.6278C78.4643 44.6232 78.3352 44.6791 78.2405 44.7881C78.1458 44.8972 78.0985 45.0679 78.0985 45.3003H77.8145L77.836 44.3276H80.444L80.4698 45.3003H80.1858Z" fill="#091017"/>
<path d="M75.0104 47.4088C74.7378 47.4088 74.5054 47.3629 74.3132 47.2711C74.1238 47.1793 73.9703 47.0574 73.8527 46.9053C73.7351 46.7504 73.649 46.5796 73.5945 46.3932C73.54 46.2067 73.5127 46.0202 73.5127 45.8337C73.5127 45.6529 73.5428 45.4707 73.6031 45.2871C73.6662 45.1006 73.7594 44.9299 73.8828 44.775C74.0091 44.6201 74.1669 44.4952 74.3562 44.4006C74.5456 44.3059 74.7679 44.2585 75.0233 44.2585C75.2844 44.2585 75.5096 44.3059 75.699 44.4006C75.8883 44.4952 76.0432 44.6215 76.1637 44.7793C76.2842 44.9342 76.3732 45.1035 76.4306 45.2871C76.4908 45.4707 76.5209 45.6529 76.5209 45.8337C76.5209 46.0116 76.4894 46.1923 76.4263 46.3759C76.366 46.5596 76.2728 46.7303 76.1465 46.8881C76.0232 47.043 75.8668 47.1692 75.6774 47.2668C75.4881 47.3615 75.2657 47.4088 75.0104 47.4088ZM75.0577 47.0947C75.2069 47.0947 75.3317 47.0588 75.4321 46.9871C75.5325 46.9125 75.6129 46.8163 75.6731 46.6987C75.7334 46.5811 75.7764 46.4534 75.8022 46.3157C75.8281 46.1751 75.841 46.0388 75.841 45.9068C75.841 45.7089 75.8238 45.5281 75.7893 45.3646C75.7549 45.201 75.7018 45.0605 75.6301 44.9428C75.5584 44.8223 75.4666 44.7305 75.3547 44.6674C75.2456 44.6014 75.1165 44.5698 74.9673 44.5727C74.821 44.5756 74.6976 44.6157 74.5972 44.6932C74.4968 44.7678 74.4165 44.8654 74.3562 44.9859C74.296 45.1035 74.2529 45.2326 74.2271 45.3732C74.2013 45.5138 74.1884 45.6501 74.1884 45.782C74.1884 45.9169 74.2027 46.0603 74.2314 46.2124C74.263 46.3645 74.3117 46.5079 74.3777 46.6428C74.4437 46.7776 74.5327 46.8866 74.6446 46.9698C74.7565 47.053 74.8942 47.0947 75.0577 47.0947Z" fill="#091017"/>
<path d="M71.679 45.1625C71.679 45.0047 71.6517 44.8871 71.5972 44.8096C71.5427 44.7293 71.4738 44.6748 71.3906 44.6461C71.3103 44.6174 71.2314 44.6045 71.1539 44.6074L70.8742 44.6117C70.8139 44.6117 70.7623 44.6203 70.7193 44.6375C70.6762 44.6518 70.6432 44.6863 70.6203 44.7408C70.5973 44.7924 70.5858 44.8742 70.5858 44.9861V45.5886L70.8441 45.58C71.1252 45.5714 71.3519 45.59 71.524 45.6359C71.699 45.6819 71.8325 45.7478 71.9243 45.8339C72.019 45.9171 72.0821 46.0132 72.1136 46.1223C72.1481 46.2313 72.1653 46.346 72.1653 46.4666C72.1653 46.6559 72.1194 46.8166 72.0276 46.9486C71.9386 47.0777 71.8152 47.1752 71.6574 47.2412C71.4996 47.3072 71.3203 47.3402 71.1195 47.3402H69.6562V47.0562C69.7222 47.0533 69.7768 47.0447 69.8198 47.0303C69.8657 47.016 69.9001 46.983 69.9231 46.9313C69.9489 46.8797 69.9618 46.7965 69.9618 46.6817V45.0334C69.9618 44.956 69.9632 44.8814 69.9661 44.8096C69.9718 44.7379 69.9762 44.6834 69.979 44.6461C69.9331 44.649 69.8757 44.6518 69.8069 44.6547C69.738 44.6547 69.6878 44.6561 69.6562 44.659V44.3276H71.9372L71.9587 45.1625H71.679ZM70.5858 46.6559C70.5858 46.7334 70.5844 46.8065 70.5815 46.8754C70.5787 46.9443 70.5744 46.9973 70.5686 47.0346C70.6203 47.0346 70.669 47.0346 70.7149 47.0346C70.7609 47.0346 70.8068 47.0346 70.8527 47.0346C70.8986 47.0318 70.943 47.0303 70.9861 47.0303C71.1611 47.0217 71.2888 46.9643 71.3691 46.8582C71.4494 46.752 71.4896 46.6157 71.4896 46.4493C71.4896 46.3001 71.4623 46.1854 71.4078 46.105C71.3533 46.0247 71.283 45.9688 71.197 45.9372C71.1138 45.9056 71.0262 45.8899 70.9344 45.8899C70.8627 45.8899 70.801 45.8899 70.7494 45.8899C70.6977 45.887 70.6432 45.8884 70.5858 45.8942V46.6559Z" fill="#091017"/>
<path d="M66.7565 47.4088C66.4839 47.4088 66.2515 47.3629 66.0593 47.2711C65.8699 47.1793 65.7164 47.0574 65.5988 46.9053C65.4811 46.7504 65.3951 46.5796 65.3406 46.3932C65.286 46.2067 65.2588 46.0202 65.2588 45.8337C65.2588 45.6529 65.2889 45.4707 65.3492 45.2871C65.4123 45.1006 65.5055 44.9299 65.6289 44.775C65.7551 44.6201 65.9129 44.4952 66.1023 44.4006C66.2917 44.3059 66.514 44.2585 66.7694 44.2585C67.0305 44.2585 67.2557 44.3059 67.445 44.4006C67.6344 44.4952 67.7893 44.6215 67.9098 44.7793C68.0303 44.9342 68.1193 45.1035 68.1767 45.2871C68.2369 45.4707 68.267 45.6529 68.267 45.8337C68.267 46.0116 68.2355 46.1923 68.1724 46.3759C68.1121 46.5596 68.0189 46.7303 67.8926 46.8881C67.7693 47.043 67.6129 47.1692 67.4235 47.2668C67.2342 47.3615 67.0118 47.4088 66.7565 47.4088ZM66.8038 47.0947C66.953 47.0947 67.0778 47.0588 67.1782 46.9871C67.2786 46.9125 67.359 46.8163 67.4192 46.6987C67.4795 46.5811 67.5225 46.4534 67.5483 46.3157C67.5742 46.1751 67.5871 46.0388 67.5871 45.9068C67.5871 45.7089 67.5699 45.5281 67.5354 45.3646C67.501 45.201 67.4479 45.0605 67.3762 44.9428C67.3045 44.8223 67.2126 44.7305 67.1008 44.6674C66.9917 44.6014 66.8626 44.5698 66.7134 44.5727C66.5671 44.5756 66.4437 44.6157 66.3433 44.6932C66.2429 44.7678 66.1626 44.8654 66.1023 44.9859C66.0421 45.1035 65.999 45.2326 65.9732 45.3732C65.9474 45.5138 65.9345 45.6501 65.9345 45.782C65.9345 45.9169 65.9488 46.0603 65.9775 46.2124C66.0091 46.3645 66.0578 46.5079 66.1238 46.6428C66.1898 46.7776 66.2788 46.8866 66.3907 46.9698C66.5025 47.053 66.6403 47.0947 66.8038 47.0947Z" fill="#091017"/>
<path d="M61.498 47.0557C61.564 47.0528 61.6185 47.0442 61.6616 47.0298C61.7075 47.0155 61.7419 46.9825 61.7649 46.9308C61.7907 46.8792 61.8036 46.796 61.8036 46.6812V45.0329C61.8036 44.9555 61.805 44.8809 61.8079 44.8091C61.8136 44.7374 61.818 44.6829 61.8208 44.6456C61.7749 44.6485 61.7175 44.6513 61.6487 44.6542C61.5798 44.6542 61.5296 44.6557 61.498 44.6585V44.3271C61.7018 44.3243 61.9055 44.3228 62.1092 44.3228C62.3129 44.3228 62.5166 44.3214 62.7203 44.3185C62.9728 44.3157 63.1923 44.3487 63.3787 44.4175C63.5681 44.4864 63.713 44.5925 63.8134 44.736C63.9167 44.8794 63.9655 45.0659 63.9597 45.2955C63.9569 45.4102 63.9296 45.5236 63.878 45.6354C63.8263 45.7445 63.7503 45.8449 63.6499 45.9367C63.5495 46.0256 63.4232 46.0988 63.2711 46.1562C63.1191 46.2136 62.9412 46.2451 62.7375 46.2509C62.6744 46.2537 62.6184 46.2552 62.5697 46.2552C62.5237 46.2552 62.4764 46.2537 62.4276 46.2509V46.6296C62.4276 46.7099 62.4262 46.786 62.4233 46.8577C62.4205 46.9294 62.4162 46.9839 62.4104 47.0212C62.442 47.0184 62.4821 47.0169 62.5309 47.0169C62.5797 47.0141 62.627 47.0126 62.6729 47.0126C62.7217 47.0097 62.7561 47.0083 62.7762 47.0083V47.3397H61.498V47.0557ZM62.4276 45.9281C62.4592 45.931 62.4908 45.9338 62.5223 45.9367C62.5539 45.9396 62.5869 45.941 62.6213 45.941C62.7791 45.941 62.9068 45.9152 63.0043 45.8635C63.1047 45.809 63.1779 45.7316 63.2238 45.6311C63.2697 45.5279 63.2927 45.4031 63.2927 45.2567C63.2927 45.1133 63.2726 44.9985 63.2324 44.9124C63.1951 44.8264 63.1463 44.7632 63.0861 44.7231C63.0258 44.68 62.9627 44.6528 62.8967 44.6413C62.8307 44.627 62.7705 44.6198 62.716 44.6198C62.6557 44.6198 62.6041 44.627 62.561 44.6413C62.518 44.6557 62.485 44.6872 62.4621 44.736C62.4391 44.7848 62.4276 44.8594 62.4276 44.9598V45.9281Z" fill="#091017"/>
<path d="M57.7869 44.6117C57.7238 44.6145 57.6693 44.6232 57.6234 44.6375C57.5775 44.6518 57.5416 44.6848 57.5158 44.7365C57.4928 44.7853 57.4813 44.8685 57.4813 44.9861V46.6344C57.4813 46.7119 57.4799 46.7865 57.477 46.8582C57.4742 46.9299 57.4699 46.9844 57.4641 47.0217C57.51 47.016 57.5674 47.0131 57.6363 47.0131C57.708 47.0102 57.7582 47.0088 57.7869 47.0088V47.3402H56.5518V47.0562C56.6177 47.0533 56.6723 47.0447 56.7153 47.0303C56.7612 47.016 56.7956 46.983 56.8186 46.9313C56.8444 46.8797 56.8573 46.7965 56.8573 46.6817V45.0334C56.8573 44.956 56.8587 44.8814 56.8616 44.8096C56.8674 44.7379 56.8717 44.6834 56.8745 44.6461C56.8286 44.649 56.7712 44.6518 56.7024 44.6547C56.6335 44.6547 56.5833 44.6561 56.5518 44.659V44.3276H57.7869V44.6117Z" fill="#091017"/>
<path d="M52.6309 47.3399V47.0558C52.6968 47.0529 52.7514 47.0443 52.7944 47.03C52.8403 47.0156 52.8747 46.9827 52.8977 46.931C52.9235 46.8794 52.9364 46.7962 52.9364 46.6814V45.0331C52.9364 44.9556 52.9379 44.881 52.9407 44.8093C52.9465 44.7376 52.9508 44.6831 52.9536 44.6458C52.9077 44.6486 52.8503 44.6515 52.7815 44.6544C52.7126 44.6544 52.6624 44.6558 52.6309 44.6587V44.3273C52.8288 44.3244 53.0268 44.323 53.2248 44.323C53.4256 44.323 53.625 44.3216 53.823 44.3187C54.1673 44.3158 54.4398 44.3804 54.6407 44.5124C54.8444 44.6415 54.939 44.838 54.9247 45.102C54.919 45.1852 54.8931 45.2669 54.8472 45.3473C54.8013 45.4247 54.7325 45.495 54.6407 45.5581C54.5517 45.6213 54.4398 45.6715 54.305 45.7088V45.7131C54.5919 45.759 54.8028 45.8551 54.9376 46.0014C55.0725 46.1449 55.1399 46.3055 55.1399 46.4834C55.1399 46.6699 55.094 46.8277 55.0022 46.9568C54.9132 47.0831 54.7899 47.1792 54.6321 47.2452C54.4743 47.3083 54.2949 47.3399 54.0941 47.3399H52.6309ZM53.5432 47.0343C53.5949 47.0343 53.6436 47.0343 53.6896 47.0343C53.7355 47.0343 53.7814 47.0343 53.8273 47.0343C53.8732 47.0314 53.9177 47.03 53.9607 47.03C54.1357 47.0214 54.2634 46.9654 54.3437 46.8622C54.424 46.7589 54.4642 46.6283 54.4642 46.4705C54.4642 46.3385 54.437 46.2353 54.3824 46.1607C54.3279 46.0832 54.2576 46.0287 54.1716 45.9971C54.0884 45.9656 54.0009 45.9498 53.909 45.9498C53.8373 45.9498 53.7756 45.9498 53.724 45.9498C53.6723 45.9498 53.6178 45.9512 53.5604 45.9541V46.6556C53.5604 46.733 53.559 46.8062 53.5561 46.8751C53.5533 46.9439 53.549 46.997 53.5432 47.0343ZM53.5604 45.6485L53.7842 45.6442C53.9047 45.6413 53.9994 45.6141 54.0683 45.5624C54.14 45.5108 54.1902 45.4419 54.2189 45.3559C54.2505 45.2669 54.2662 45.1708 54.2662 45.0675C54.2662 44.9528 54.2433 44.8638 54.1974 44.8007C54.1515 44.7347 54.0941 44.6874 54.0252 44.6587C53.9564 44.63 53.8847 44.6171 53.8101 44.62C53.7642 44.62 53.7226 44.6271 53.6853 44.6415C53.648 44.6558 53.6178 44.6888 53.5949 44.7405C53.5719 44.7892 53.5604 44.8696 53.5604 44.9815V45.6485Z" fill="#091017"/>
<path d="M49.7301 47.4088C49.4575 47.4088 49.2251 47.3629 49.0329 47.2711C48.8435 47.1793 48.69 47.0574 48.5724 46.9053C48.4548 46.7504 48.3687 46.5796 48.3142 46.3932C48.2597 46.2067 48.2324 46.0202 48.2324 45.8337C48.2324 45.6529 48.2625 45.4707 48.3228 45.2871C48.3859 45.1006 48.4792 44.9299 48.6025 44.775C48.7288 44.6201 48.8866 44.4952 49.0759 44.4006C49.2653 44.3059 49.4877 44.2585 49.743 44.2585C50.0041 44.2585 50.2293 44.3059 50.4187 44.4006C50.608 44.4952 50.763 44.6215 50.8835 44.7793C51.004 44.9342 51.0929 45.1035 51.1503 45.2871C51.2105 45.4707 51.2407 45.6529 51.2407 45.8337C51.2407 46.0116 51.2091 46.1923 51.146 46.3759C51.0857 46.5596 50.9925 46.7303 50.8663 46.8881C50.7429 47.043 50.5865 47.1692 50.3972 47.2668C50.2078 47.3615 49.9854 47.4088 49.7301 47.4088ZM49.7774 47.0947C49.9266 47.0947 50.0514 47.0588 50.1518 46.9871C50.2523 46.9125 50.3326 46.8163 50.3929 46.6987C50.4531 46.5811 50.4961 46.4534 50.522 46.3157C50.5478 46.1751 50.5607 46.0388 50.5607 45.9068C50.5607 45.7089 50.5435 45.5281 50.5091 45.3646C50.4746 45.201 50.4215 45.0605 50.3498 44.9428C50.2781 44.8223 50.1863 44.7305 50.0744 44.6674C49.9654 44.6014 49.8362 44.5698 49.6871 44.5727C49.5407 44.5756 49.4174 44.6157 49.3169 44.6932C49.2165 44.7678 49.1362 44.8654 49.0759 44.9859C49.0157 45.1035 48.9727 45.2326 48.9468 45.3732C48.921 45.5138 48.9081 45.6501 48.9081 45.782C48.9081 45.9169 48.9224 46.0603 48.9511 46.2124C48.9827 46.3645 49.0315 46.5079 49.0975 46.6428C49.1634 46.7776 49.2524 46.8866 49.3643 46.9698C49.4762 47.053 49.6139 47.0947 49.7774 47.0947Z" fill="#091017"/>
<path d="M44.148 47.3402V47.0562C44.2312 47.0361 44.3144 46.9902 44.3976 46.9184C44.4808 46.8438 44.5755 46.7362 44.6816 46.5957L45.1809 45.9286C45.0661 45.7823 44.9513 45.6359 44.8366 45.4896C44.7218 45.3433 44.6056 45.197 44.488 45.0507C44.4421 44.9904 44.4005 44.9244 44.3632 44.8527C44.3259 44.7781 44.2958 44.7092 44.2728 44.6461C44.2269 44.649 44.1867 44.6518 44.1523 44.6547C44.1207 44.6547 44.0892 44.6561 44.0576 44.659V44.3276H45.3659V44.6117H45.3229C45.2339 44.6117 45.1723 44.6246 45.1378 44.6504C45.1034 44.6762 45.0905 44.7121 45.0991 44.758C45.1106 44.801 45.1378 44.8498 45.1809 44.9043C45.2469 44.9847 45.3114 45.065 45.3745 45.1453C45.4377 45.2257 45.5008 45.3074 45.5639 45.3906L45.891 44.9388C45.9512 44.8556 45.9986 44.7953 46.033 44.758C46.0703 44.7178 46.1076 44.6805 46.1449 44.6461C46.099 44.649 46.0416 44.6518 45.9727 44.6547C45.9039 44.6547 45.8537 44.6561 45.8221 44.659V44.3276H46.799V44.6117C46.7331 44.6203 46.6671 44.6432 46.6011 44.6805C46.538 44.7178 46.4734 44.7709 46.4074 44.8398C46.3414 44.9058 46.2697 44.9918 46.1922 45.098L45.7791 45.6618C45.8709 45.7765 45.9613 45.8913 46.0502 46.0061C46.1392 46.1208 46.2281 46.2356 46.317 46.3504C46.4088 46.4651 46.4992 46.5799 46.5882 46.6946C46.6369 46.7549 46.6814 46.8123 46.7216 46.8668C46.7617 46.9213 46.7919 46.9729 46.812 47.0217C46.8607 47.016 46.8952 47.0131 46.9152 47.0131C46.9353 47.0102 46.9597 47.0088 46.9884 47.0088V47.3402H45.7016V47.0562C45.8078 47.0562 45.8766 47.0432 45.9082 47.0174C45.9397 46.9916 45.9469 46.9572 45.9297 46.9141C45.9154 46.8682 45.8867 46.818 45.8436 46.7635C45.7719 46.6717 45.6987 46.5799 45.6241 46.4881C45.5524 46.3934 45.4793 46.3001 45.4047 46.2083C45.3415 46.2944 45.2784 46.3819 45.2153 46.4709C45.1522 46.5569 45.0891 46.643 45.0259 46.7291C44.9657 46.8094 44.9198 46.8697 44.8882 46.9098C44.8567 46.95 44.8237 46.9873 44.7892 47.0217C44.838 47.0189 44.894 47.016 44.9571 47.0131C45.0202 47.0102 45.0661 47.0088 45.0948 47.0088V47.3402H44.148Z" fill="#091017"/>
<path d="M40.9197 47.409C40.8278 47.409 40.7418 47.3904 40.6614 47.3531C40.5811 47.3187 40.5165 47.2699 40.4678 47.2068C40.419 47.1408 40.3946 47.0662 40.3946 46.983C40.3946 46.894 40.4204 46.8123 40.4721 46.7377C40.5237 46.6631 40.6069 46.6258 40.7217 46.6258C40.8192 46.6258 40.8924 46.653 40.9412 46.7076C40.9928 46.7592 41.0186 46.8209 41.0186 46.8926C41.0186 46.9242 41.0129 46.9557 41.0014 46.9873C40.9928 47.0189 40.977 47.0504 40.9541 47.082C40.9598 47.0906 40.967 47.0978 40.9756 47.1035C40.9871 47.1092 41 47.1121 41.0143 47.1121C41.0889 47.1121 41.1678 47.0562 41.251 46.9443C41.2769 46.907 41.3012 46.8682 41.3242 46.8281C41.3472 46.7879 41.3715 46.7391 41.3974 46.6817C41.4232 46.6215 41.4533 46.5483 41.4877 46.4622C41.5222 46.3733 41.5623 46.2657 41.6082 46.1395C41.657 46.0104 41.7144 45.8554 41.7804 45.6747C41.8464 45.4939 41.9238 45.2816 42.0128 45.0377C42.0443 44.9574 42.0745 44.8828 42.1032 44.8139C42.1318 44.7451 42.1648 44.6877 42.2021 44.6418L41.8708 44.659V44.3276H42.8047V44.6117C42.7387 44.6117 42.6813 44.6232 42.6325 44.6461C42.5837 44.6662 42.5393 44.7064 42.4991 44.7666C42.4589 44.824 42.4173 44.9086 42.3743 45.0205L41.746 46.6774C41.6656 46.8869 41.5795 47.0447 41.4877 47.1508C41.3959 47.2541 41.3012 47.323 41.2037 47.3574C41.109 47.3918 41.0143 47.409 40.9197 47.409ZM41.492 46.6645L40.4721 45.0679C40.4319 45.0019 40.3946 44.9273 40.3602 44.8441C40.3258 44.758 40.3085 44.692 40.3085 44.6461L40.0977 44.659V44.3276H41.3672V44.6117C41.284 44.6059 41.2152 44.6145 41.1607 44.6375C41.1061 44.6605 41.0731 44.6978 41.0617 44.7494C41.0502 44.7982 41.0674 44.8627 41.1133 44.9431L41.4705 45.5628C41.5136 45.6345 41.5638 45.7148 41.6211 45.8038C41.6785 45.8927 41.7201 45.9616 41.746 46.0104L41.492 46.6645Z" fill="#091017"/>
<path d="M38.4055 45.1625C38.4055 45.0047 38.3783 44.8871 38.3238 44.8096C38.2692 44.7293 38.2004 44.6748 38.1172 44.6461C38.0368 44.6174 37.9579 44.6045 37.8805 44.6074L37.6007 44.6117C37.5405 44.6117 37.4888 44.6203 37.4458 44.6375C37.4028 44.6518 37.3698 44.6863 37.3468 44.7408C37.3239 44.7924 37.3124 44.8742 37.3124 44.9861V45.5886L37.5706 45.58C37.8518 45.5714 38.0785 45.59 38.2506 45.6359C38.4256 45.6819 38.559 45.7478 38.6508 45.8339C38.7455 45.9171 38.8086 46.0132 38.8402 46.1223C38.8746 46.2313 38.8918 46.346 38.8918 46.4666C38.8918 46.6559 38.8459 46.8166 38.7541 46.9486C38.6652 47.0777 38.5418 47.1752 38.384 47.2412C38.2262 47.3072 38.0469 47.3402 37.8461 47.3402H36.3828V47.0562C36.4488 47.0533 36.5033 47.0447 36.5463 47.0303C36.5923 47.016 36.6267 46.983 36.6496 46.9313C36.6755 46.8797 36.6884 46.7965 36.6884 46.6817V45.0334C36.6884 44.956 36.6898 44.8814 36.6927 44.8096C36.6984 44.7379 36.7027 44.6834 36.7056 44.6461C36.6597 44.649 36.6023 44.6518 36.5334 44.6547C36.4646 44.6547 36.4144 44.6561 36.3828 44.659V44.3276H38.6637L38.6853 45.1625H38.4055ZM37.3124 46.6559C37.3124 46.7334 37.311 46.8065 37.3081 46.8754C37.3052 46.9443 37.3009 46.9973 37.2952 47.0346C37.3468 47.0346 37.3956 47.0346 37.4415 47.0346C37.4874 47.0346 37.5333 47.0346 37.5792 47.0346C37.6251 47.0318 37.6696 47.0303 37.7126 47.0303C37.8877 47.0217 38.0153 46.9643 38.0957 46.8582C38.176 46.752 38.2162 46.6157 38.2162 46.4493C38.2162 46.3001 38.1889 46.1854 38.1344 46.105C38.0799 46.0247 38.0096 45.9688 37.9235 45.9372C37.8403 45.9056 37.7528 45.8899 37.661 45.8899C37.5893 45.8899 37.5276 45.8899 37.4759 45.8899C37.4243 45.887 37.3698 45.8884 37.3124 45.8942V46.6559Z" fill="#091017"/>
<path d="M33.0154 44.6117C32.9523 44.6145 32.8978 44.6232 32.8519 44.6375C32.806 44.6518 32.7701 44.6848 32.7443 44.7365C32.7213 44.7853 32.7099 44.8685 32.7099 44.9861V46.6344C32.7099 46.7119 32.7084 46.7865 32.7056 46.8582C32.7027 46.9299 32.6984 46.9844 32.6926 47.0217C32.7386 47.016 32.7959 47.0131 32.8648 47.0131C32.9365 47.0102 32.9867 47.0088 33.0154 47.0088V47.3402H31.7803V47.0562C31.8463 47.0533 31.9008 47.0447 31.9438 47.0303C31.9897 47.016 32.0241 46.983 32.0471 46.9313C32.0729 46.8797 32.0858 46.7965 32.0858 46.6817V45.0334C32.0858 44.956 32.0873 44.8814 32.0901 44.8096C32.0959 44.7379 32.1002 44.6834 32.103 44.6461C32.0571 44.649 31.9998 44.6518 31.9309 44.6547C31.862 44.6547 31.8118 44.6561 31.7803 44.659V44.3276H33.0154V44.6117ZM34.8746 44.6117C34.8115 44.6145 34.757 44.6232 34.7111 44.6375C34.6652 44.6518 34.6293 44.6848 34.6035 44.7365C34.5805 44.7853 34.569 44.8685 34.569 44.9861V46.6344C34.569 46.7119 34.5676 46.7865 34.5647 46.8582C34.5619 46.9299 34.5576 46.9844 34.5518 47.0217C34.5977 47.016 34.6551 47.0131 34.724 47.0131C34.7957 47.0102 34.8459 47.0088 34.8746 47.0088V47.3402H33.6394V47.0562C33.7054 47.0533 33.76 47.0447 33.803 47.0303C33.8489 47.016 33.8833 46.983 33.9063 46.9313C33.9321 46.8797 33.945 46.7965 33.945 46.6817V45.0334C33.945 44.956 33.9464 44.8814 33.9493 44.8096C33.955 44.7379 33.9594 44.6834 33.9622 44.6461C33.9163 44.649 33.8589 44.6518 33.7901 44.6547C33.7212 44.6547 33.671 44.6561 33.6394 44.659V44.3276H34.8746V44.6117ZM34.2764 44.4567L34.483 44.6633L32.3354 47.2154L32.116 46.9959L34.2764 44.4567Z" fill="#091017"/>
<path d="M27.8594 47.3399V47.0558C27.9254 47.0529 27.9799 47.0443 28.0229 47.03C28.0688 47.0156 28.1032 46.9827 28.1262 46.931C28.152 46.8794 28.1649 46.7962 28.1649 46.6814V45.0331C28.1649 44.9556 28.1664 44.881 28.1692 44.8093C28.175 44.7376 28.1793 44.6831 28.1821 44.6458C28.1362 44.6486 28.0789 44.6515 28.01 44.6544C27.9411 44.6544 27.8909 44.6558 27.8594 44.6587V44.3273C28.0573 44.3244 28.2553 44.323 28.4533 44.323C28.6541 44.323 28.8535 44.3216 29.0515 44.3187C29.3958 44.3158 29.6683 44.3804 29.8692 44.5124C30.0729 44.6415 30.1676 44.838 30.1532 45.102C30.1475 45.1852 30.1217 45.2669 30.0758 45.3473C30.0298 45.4247 29.961 45.495 29.8692 45.5581C29.7802 45.6213 29.6683 45.6715 29.5335 45.7088V45.7131C29.8204 45.759 30.0313 45.8551 30.1661 46.0014C30.301 46.1449 30.3684 46.3055 30.3684 46.4834C30.3684 46.6699 30.3225 46.8277 30.2307 46.9568C30.1417 47.0831 30.0184 47.1792 29.8606 47.2452C29.7028 47.3083 29.5235 47.3399 29.3226 47.3399H27.8594ZM28.7717 47.0343C28.8234 47.0343 28.8722 47.0343 28.9181 47.0343C28.964 47.0343 29.0099 47.0343 29.0558 47.0343C29.1017 47.0314 29.1462 47.03 29.1892 47.03C29.3642 47.0214 29.4919 46.9654 29.5722 46.8622C29.6526 46.7589 29.6927 46.6283 29.6927 46.4705C29.6927 46.3385 29.6655 46.2353 29.611 46.1607C29.5564 46.0832 29.4862 46.0287 29.4001 45.9971C29.3169 45.9656 29.2294 45.9498 29.1376 45.9498C29.0658 45.9498 29.0041 45.9498 28.9525 45.9498C28.9009 45.9498 28.8463 45.9512 28.789 45.9541V46.6556C28.789 46.733 28.7875 46.8062 28.7847 46.8751C28.7818 46.9439 28.7775 46.997 28.7717 47.0343ZM28.789 45.6485L29.0128 45.6442C29.1333 45.6413 29.2279 45.6141 29.2968 45.5624C29.3685 45.5108 29.4187 45.4419 29.4474 45.3559C29.479 45.2669 29.4948 45.1708 29.4948 45.0675C29.4948 44.9528 29.4718 44.8638 29.4259 44.8007C29.38 44.7347 29.3226 44.6874 29.2538 44.6587C29.1849 44.63 29.1132 44.6171 29.0386 44.62C28.9927 44.62 28.9511 44.6271 28.9138 44.6415C28.8765 44.6558 28.8463 44.6888 28.8234 44.7405C28.8004 44.7892 28.789 44.8696 28.789 44.9815V45.6485Z" fill="#091017"/>
<path d="M24.9586 47.4088C24.686 47.4088 24.4536 47.3629 24.2614 47.2711C24.0721 47.1793 23.9186 47.0574 23.8009 46.9053C23.6833 46.7504 23.5972 46.5796 23.5427 46.3932C23.4882 46.2067 23.4609 46.0202 23.4609 45.8337C23.4609 45.6529 23.4911 45.4707 23.5513 45.2871C23.6144 45.1006 23.7077 44.9299 23.8311 44.775C23.9573 44.6201 24.1151 44.4952 24.3045 44.4006C24.4938 44.3059 24.7162 44.2585 24.9715 44.2585C25.2326 44.2585 25.4578 44.3059 25.6472 44.4006C25.8366 44.4952 25.9915 44.6215 26.112 44.7793C26.2325 44.9342 26.3214 45.1035 26.3788 45.2871C26.4391 45.4707 26.4692 45.6529 26.4692 45.8337C26.4692 46.0116 26.4376 46.1923 26.3745 46.3759C26.3143 46.5596 26.221 46.7303 26.0948 46.8881C25.9714 47.043 25.815 47.1692 25.6257 47.2668C25.4363 47.3615 25.214 47.4088 24.9586 47.4088ZM25.0059 47.0947C25.1551 47.0947 25.2799 47.0588 25.3804 46.9871C25.4808 46.9125 25.5611 46.8163 25.6214 46.6987C25.6816 46.5811 25.7247 46.4534 25.7505 46.3157C25.7763 46.1751 25.7892 46.0388 25.7892 45.9068C25.7892 45.7089 25.772 45.5281 25.7376 45.3646C25.7031 45.201 25.6501 45.0605 25.5783 44.9428C25.5066 44.8223 25.4148 44.7305 25.3029 44.6674C25.1939 44.6014 25.0648 44.5698 24.9156 44.5727C24.7692 44.5756 24.6459 44.6157 24.5455 44.6932C24.445 44.7678 24.3647 44.8654 24.3045 44.9859C24.2442 45.1035 24.2012 45.2326 24.1753 45.3732C24.1495 45.5138 24.1366 45.6501 24.1366 45.782C24.1366 45.9169 24.151 46.0603 24.1796 46.2124C24.2112 46.3645 24.26 46.5079 24.326 46.6428C24.392 46.7776 24.4809 46.8866 24.5928 46.9698C24.7047 47.053 24.8424 47.0947 25.0059 47.0947Z" fill="#091017"/>
<path d="M19.7021 47.0557C19.7681 47.0528 19.8227 47.0442 19.8657 47.0298C19.9116 47.0155 19.946 46.9825 19.969 46.9308C19.9948 46.8792 20.0077 46.796 20.0077 46.6812V45.0329C20.0077 44.9555 20.0091 44.8809 20.012 44.8091C20.0177 44.7374 20.0221 44.6829 20.0249 44.6456C19.979 44.6485 19.9216 44.6513 19.8528 44.6542C19.7839 44.6542 19.7337 44.6557 19.7021 44.6585V44.3271C19.9059 44.3243 20.1096 44.3228 20.3133 44.3228C20.517 44.3228 20.7207 44.3214 20.9244 44.3185C21.1769 44.3157 21.3964 44.3487 21.5828 44.4175C21.7722 44.4864 21.9171 44.5925 22.0175 44.736C22.1208 44.8794 22.1696 45.0659 22.1638 45.2955C22.161 45.4102 22.1337 45.5236 22.0821 45.6354C22.0304 45.7445 21.9544 45.8449 21.854 45.9367C21.7536 46.0256 21.6273 46.0988 21.4753 46.1562C21.3232 46.2136 21.1453 46.2451 20.9416 46.2509C20.8785 46.2537 20.8225 46.2552 20.7738 46.2552C20.7279 46.2552 20.6805 46.2537 20.6317 46.2509V46.6296C20.6317 46.7099 20.6303 46.786 20.6274 46.8577C20.6246 46.9294 20.6203 46.9839 20.6145 47.0212C20.6461 47.0184 20.6862 47.0169 20.735 47.0169C20.7838 47.0141 20.8311 47.0126 20.877 47.0126C20.9258 47.0097 20.9602 47.0083 20.9803 47.0083V47.3397H19.7021V47.0557ZM20.6317 45.9281C20.6633 45.931 20.6949 45.9338 20.7264 45.9367C20.758 45.9396 20.791 45.941 20.8254 45.941C20.9832 45.941 21.1109 45.9152 21.2084 45.8635C21.3088 45.809 21.382 45.7316 21.4279 45.6311C21.4738 45.5279 21.4968 45.4031 21.4968 45.2567C21.4968 45.1133 21.4767 44.9985 21.4365 44.9124C21.3992 44.8264 21.3504 44.7632 21.2902 44.7231C21.2299 44.68 21.1668 44.6528 21.1008 44.6413C21.0348 44.627 20.9746 44.6198 20.9201 44.6198C20.8598 44.6198 20.8082 44.627 20.7651 44.6413C20.7221 44.6557 20.6891 44.6872 20.6662 44.736C20.6432 44.7848 20.6317 44.8594 20.6317 44.9598V45.9281Z" fill="#091017"/>
<path d="M16.4089 47.409C16.3171 47.409 16.231 47.3904 16.1507 47.3531C16.0704 47.3187 16.0058 47.2699 15.957 47.2068C15.9083 47.1408 15.8839 47.0662 15.8839 46.983C15.8839 46.894 15.9097 46.8123 15.9613 46.7377C16.013 46.6631 16.0962 46.6258 16.2109 46.6258C16.3085 46.6258 16.3817 46.653 16.4304 46.7076C16.4821 46.7592 16.5079 46.8209 16.5079 46.8926C16.5079 46.9242 16.5022 46.9557 16.4907 46.9873C16.4821 47.0189 16.4663 47.0504 16.4433 47.082C16.4491 47.0906 16.4563 47.0978 16.4649 47.1035C16.4763 47.1092 16.4892 47.1121 16.5036 47.1121C16.5782 47.1121 16.6571 47.0562 16.7403 46.9443C16.7661 46.907 16.7905 46.8682 16.8135 46.8281C16.8364 46.7879 16.8608 46.7391 16.8866 46.6817C16.9124 46.6215 16.9426 46.5483 16.977 46.4622C17.0114 46.3733 17.0516 46.2657 17.0975 46.1395C17.1463 46.0104 17.2037 45.8554 17.2696 45.6747C17.3356 45.4939 17.4131 45.2816 17.502 45.0377C17.5336 44.9574 17.5637 44.8828 17.5924 44.8139C17.6211 44.7451 17.6541 44.6877 17.6914 44.6418L17.36 44.659V44.3276H18.2939V44.6117C18.2279 44.6117 18.1705 44.6232 18.1218 44.6461C18.073 44.6662 18.0285 44.7064 17.9884 44.7666C17.9482 44.824 17.9066 44.9086 17.8635 45.0205L17.2352 46.6774C17.1549 46.8869 17.0688 47.0447 16.977 47.1508C16.8852 47.2541 16.7905 47.323 16.693 47.3574C16.5983 47.3918 16.5036 47.409 16.4089 47.409ZM16.9813 46.6645L15.9613 45.0679C15.9212 45.0019 15.8839 44.9273 15.8494 44.8441C15.815 44.758 15.7978 44.692 15.7978 44.6461L15.5869 44.659V44.3276H16.8565V44.6117C16.7733 44.6059 16.7044 44.6145 16.6499 44.6375C16.5954 44.6605 16.5624 44.6978 16.5509 44.7494C16.5395 44.7982 16.5567 44.8627 16.6026 44.9431L16.9598 45.5628C17.0028 45.6345 17.053 45.7148 17.1104 45.8038C17.1678 45.8927 17.2094 45.9616 17.2352 46.0104L16.9813 46.6645Z" fill="#091017"/>
<path d="M13.8948 45.1625C13.8948 45.0047 13.8675 44.8871 13.813 44.8096C13.7585 44.7293 13.6896 44.6748 13.6064 44.6461C13.5261 44.6174 13.4472 44.6045 13.3697 44.6074L13.09 44.6117C13.0298 44.6117 12.9781 44.6203 12.9351 44.6375C12.892 44.6518 12.859 44.6863 12.8361 44.7408C12.8131 44.7924 12.8017 44.8742 12.8017 44.9861V45.5886L13.0599 45.58C13.341 45.5714 13.5677 45.59 13.7399 45.6359C13.9149 45.6819 14.0483 45.7478 14.1401 45.8339C14.2348 45.9171 14.2979 46.0132 14.3295 46.1223C14.3639 46.2313 14.3811 46.346 14.3811 46.4666C14.3811 46.6559 14.3352 46.8166 14.2434 46.9486C14.1544 47.0777 14.0311 47.1752 13.8733 47.2412C13.7155 47.3072 13.5361 47.3402 13.3353 47.3402H11.8721V47.0562C11.9381 47.0533 11.9926 47.0447 12.0356 47.0303C12.0815 47.016 12.1159 46.983 12.1389 46.9313C12.1647 46.8797 12.1776 46.7965 12.1776 46.6817V45.0334C12.1776 44.956 12.1791 44.8814 12.1819 44.8096C12.1877 44.7379 12.192 44.6834 12.1948 44.6461C12.1489 44.649 12.0916 44.6518 12.0227 44.6547C11.9538 44.6547 11.9036 44.6561 11.8721 44.659V44.3276H14.153L14.1745 45.1625H13.8948ZM12.8017 46.6559C12.8017 46.7334 12.8002 46.8065 12.7974 46.8754C12.7945 46.9443 12.7902 46.9973 12.7844 47.0346C12.8361 47.0346 12.8849 47.0346 12.9308 47.0346C12.9767 47.0346 13.0226 47.0346 13.0685 47.0346C13.1144 47.0318 13.1589 47.0303 13.2019 47.0303C13.3769 47.0217 13.5046 46.9643 13.5849 46.8582C13.6653 46.752 13.7054 46.6157 13.7054 46.4493C13.7054 46.3001 13.6782 46.1854 13.6237 46.105C13.5691 46.0247 13.4988 45.9688 13.4128 45.9372C13.3296 45.9056 13.2421 45.8899 13.1503 45.8899C13.0785 45.8899 13.0168 45.8899 12.9652 45.8899C12.9136 45.887 12.859 45.8884 12.8017 45.8942V46.6559Z" fill="#091017"/>
<path d="M84.3201 32.3096V34.4642H77.4814V32.3096H84.3201ZM79.6238 33.3869L79.067 36.7639L77.8808 35.4567H84.768V37.9259H75.9805L76.6462 33.3869L75.9805 28.8479H84.7075V31.3171H77.8808L79.067 30.0099L79.6238 33.3869Z" fill="#091017"/>
<path d="M74.1593 33.992C74.0625 34.8231 73.776 35.5493 73.2999 36.1707C72.8319 36.792 72.2105 37.2762 71.4359 37.6232C70.6612 37.9701 69.7736 38.1436 68.773 38.1436C67.6917 38.1436 66.7476 37.9459 65.9407 37.5505C65.1337 37.1551 64.5043 36.6024 64.0524 35.8923C63.6086 35.1741 63.3867 34.3389 63.3867 33.3868C63.3867 32.4346 63.6086 31.6034 64.0524 30.8933C64.5043 30.1752 65.1337 29.6184 65.9407 29.223C66.7476 28.8276 67.6917 28.6299 68.773 28.6299C69.7736 28.6299 70.6612 28.8034 71.4359 29.1504C72.2105 29.4973 72.8319 29.9815 73.2999 30.6028C73.776 31.2242 74.0625 31.9504 74.1593 32.7816H71.0244C70.9517 32.4669 70.8186 32.2006 70.6249 31.9827C70.4313 31.7568 70.1771 31.5873 69.8624 31.4743C69.5557 31.3533 69.1926 31.2928 68.773 31.2928C68.305 31.2928 67.9015 31.3775 67.5626 31.547C67.2318 31.7083 66.9776 31.9464 66.8001 32.2611C66.6225 32.5758 66.5338 32.951 66.5338 33.3868C66.5338 33.8225 66.6225 34.1977 66.8001 34.5124C66.9776 34.8191 67.2318 35.0571 67.5626 35.2266C67.9015 35.396 68.305 35.4808 68.773 35.4808C69.1926 35.4808 69.5557 35.4283 69.8624 35.3234C70.1771 35.2104 70.4313 35.045 70.6249 34.8271C70.8186 34.6012 70.9517 34.3228 71.0244 33.992H74.1593Z" fill="#091017"/>
<path d="M58.0615 28.8479H61.1844V37.9259H58.0615V28.8479Z" fill="#091017"/>
<path d="M51.0686 36.4976H49.7856L53.0173 28.8479H56.2854L52.17 37.9259H48.6115L44.4961 28.8479H47.8368L51.0686 36.4976Z" fill="#091017"/>
<path d="M36.2043 32.7333H39.2545C39.5612 32.7333 39.7992 32.6607 39.9687 32.5154C40.1381 32.3702 40.2229 32.1604 40.2229 31.886C40.2229 31.6117 40.1381 31.4018 39.9687 31.2566C39.7992 31.1114 39.5612 31.0387 39.2545 31.0387H35.7686L37.1726 29.6347V37.9259H34.0498V28.8479H39.7387C40.4649 28.8479 41.0984 28.977 41.639 29.2352C42.1877 29.4854 42.6114 29.8364 42.9099 30.2883C43.2166 30.7402 43.3699 31.2727 43.3699 31.886C43.3699 32.4831 43.2166 33.0117 42.9099 33.4716C42.6114 33.9235 42.1877 34.2745 41.639 34.5247C41.0984 34.7748 40.4649 34.8999 39.7387 34.8999H36.2043V32.7333ZM37.2695 33.6774H40.7191L43.733 37.9259H40.1623L37.2695 33.6774Z" fill="#091017"/>
<path d="M31.2362 32.3096V34.4642H24.3974V32.3096H31.2362ZM26.5398 33.3869L25.983 36.7639L24.7968 35.4567H31.684V37.9259H22.8965L23.5622 33.3869L22.8965 28.8479H31.6235V31.3171H24.7968L25.983 30.0099L26.5398 33.3869Z" fill="#091017"/>
<path d="M11.2734 34.9361H14.4447C14.477 35.1136 14.5698 35.2669 14.7231 35.396C14.8764 35.5171 15.0862 35.6139 15.3525 35.6865C15.6188 35.7511 15.9375 35.7834 16.3087 35.7834C16.7929 35.7834 17.1681 35.7349 17.4344 35.6381C17.7087 35.5413 17.8459 35.3839 17.8459 35.1661C17.8459 35.0208 17.7693 34.8998 17.6159 34.8029C17.4626 34.698 17.1479 34.6294 16.6718 34.5972L15.1709 34.5003C13.8072 34.4116 12.8228 34.1211 12.2176 33.6288C11.6123 33.1366 11.3097 32.487 11.3097 31.6801C11.3097 31.0023 11.5034 30.4374 11.8907 29.9855C12.2781 29.5336 12.8187 29.1947 13.5127 28.9688C14.2147 28.7429 15.0338 28.6299 15.9698 28.6299C16.8816 28.6299 17.6886 28.759 18.3906 29.0172C19.1007 29.2674 19.6615 29.6224 20.0731 30.0824C20.4927 30.5423 20.7226 31.0789 20.763 31.6922H17.5917C17.5675 31.547 17.4868 31.4219 17.3497 31.317C17.2205 31.2121 17.0349 31.1314 16.7929 31.0749C16.5508 31.0184 16.2563 30.9902 15.9093 30.9902C15.4655 30.9902 15.1144 31.0345 14.8562 31.1233C14.6061 31.2121 14.481 31.3573 14.481 31.5591C14.481 31.6962 14.5536 31.8132 14.6989 31.9101C14.8522 32.0069 15.1427 32.0715 15.5704 32.1037L17.2649 32.2127C18.1526 32.2692 18.8707 32.4023 19.4194 32.6121C19.9682 32.8138 20.3676 33.0963 20.6177 33.4594C20.876 33.8225 21.0051 34.2704 21.0051 34.8029C21.0051 35.4727 20.8074 36.0577 20.412 36.558C20.0166 37.0583 19.4598 37.4497 18.7416 37.7321C18.0315 38.0065 17.2004 38.1436 16.2482 38.1436C15.2637 38.1436 14.4003 38.0105 13.6579 37.7442C12.9155 37.4779 12.3346 37.1027 11.915 36.6185C11.5034 36.1344 11.2896 35.5736 11.2734 34.9361Z" fill="#091017"/>
</svg>
