<svg width="80" height="80" viewBox="0 0 80 80" fill="none" xmlns="http://www.w3.org/2000/svg">
<rect width="80" height="80" fill="#00CCCC"/>
<g clip-path="url(#clip0_7_4342)">
<path fill-rule="evenodd" clip-rule="evenodd" d="M26.5691 37.2832C27.5737 36.2785 28.9363 35.7141 30.3571 35.7141H36.7857C37.3774 35.7141 37.8571 36.1938 37.8571 36.7855C37.8571 37.3773 37.3774 37.857 36.7857 37.857H30.3571C29.5047 37.857 28.6871 38.1956 28.0843 38.7984C27.4815 39.4012 27.1429 40.2188 27.1429 41.0713V48.5713H29.2857C29.8774 48.5713 30.3571 49.0509 30.3571 49.6427C30.3571 50.2344 29.8774 50.7141 29.2857 50.7141H26.0714C25.4797 50.7141 25 50.2344 25 49.6427V41.0713C25 39.6505 25.5644 38.2878 26.5691 37.2832Z" fill="white"/>
<path fill-rule="evenodd" clip-rule="evenodd" d="M36.6563 32.3699C37.2591 31.7671 38.0766 31.4285 38.9291 31.4285H51.7863C52.6388 31.4285 53.4563 31.7671 54.0591 32.3699C54.6619 32.9727 55.0006 33.7903 55.0006 34.6428V49.6428C55.0006 50.2345 54.5209 50.7142 53.9291 50.7142H51.7863C51.1945 50.7142 50.7148 50.2345 50.7148 49.6428C50.7148 49.051 51.1945 48.5713 51.7863 48.5713H52.8577V34.6428C52.8577 34.3586 52.7448 34.0861 52.5439 33.8851C52.343 33.6842 52.0704 33.5713 51.7863 33.5713H38.9291C38.645 33.5713 38.3724 33.6842 38.1715 33.8851C37.9706 34.0861 37.8577 34.3586 37.8577 34.6428V46.8142C37.8577 47.4059 37.378 47.8856 36.7863 47.8856C36.1945 47.8856 35.7148 47.4059 35.7148 46.8142V34.6428C35.7148 33.7903 36.0535 32.9727 36.6563 32.3699Z" fill="white"/>
<path fill-rule="evenodd" clip-rule="evenodd" d="M36.7852 49.6427C36.7852 49.051 37.2649 48.5713 37.8566 48.5713H43.2137C43.8055 48.5713 44.2852 49.051 44.2852 49.6427C44.2852 50.2345 43.8055 50.7141 43.2137 50.7141H37.8566C37.2649 50.7141 36.7852 50.2345 36.7852 49.6427Z" fill="white"/>
<path fill-rule="evenodd" clip-rule="evenodd" d="M33.572 46.4285C31.7968 46.4285 30.3577 47.8676 30.3577 49.6428C30.3577 51.418 31.7968 52.8571 33.572 52.8571C35.3472 52.8571 36.7863 51.418 36.7863 49.6428C36.7863 47.8676 35.3472 46.4285 33.572 46.4285ZM28.2148 49.6428C28.2148 46.6841 30.6133 44.2856 33.572 44.2856C36.5307 44.2856 38.9291 46.6841 38.9291 49.6428C38.9291 52.6015 36.5307 54.9999 33.572 54.9999C30.6133 54.9999 28.2148 52.6015 28.2148 49.6428Z" fill="white"/>
<path fill-rule="evenodd" clip-rule="evenodd" d="M47.4997 46.4285C45.7245 46.4285 44.2854 47.8676 44.2854 49.6428C44.2854 51.418 45.7245 52.8571 47.4997 52.8571C49.2749 52.8571 50.714 51.418 50.714 49.6428C50.714 47.8676 49.2749 46.4285 47.4997 46.4285ZM42.1426 49.6428C42.1426 46.6841 44.5411 44.2856 47.4997 44.2856C50.4584 44.2856 52.8569 46.6841 52.8569 49.6428C52.8569 52.6015 50.4584 54.9999 47.4997 54.9999C44.5411 54.9999 42.1426 52.6015 42.1426 49.6428Z" fill="white"/>
</g>
<defs>
<clipPath id="clip0_7_4342">
<rect width="30" height="30" fill="white" transform="translate(25 25)"/>
</clipPath>
</defs>
</svg>
