<svg width="80" height="80" viewBox="0 0 80 80" fill="none" xmlns="http://www.w3.org/2000/svg">
<rect width="80" height="80" fill="#00CCCC"/>
<g clip-path="url(#clip0_7_4351)">
<path fill-rule="evenodd" clip-rule="evenodd" d="M35.7141 29.2857C33.6431 29.2857 31.9641 30.9646 31.9641 33.0357C31.9641 35.1067 33.6431 36.7857 35.7141 36.7857C37.7852 36.7857 39.4641 35.1067 39.4641 33.0357C39.4641 30.9646 37.7852 29.2857 35.7141 29.2857ZM29.8213 33.0357C29.8213 29.7811 32.4596 27.1428 35.7141 27.1428C38.9687 27.1428 41.607 29.7811 41.607 33.0357C41.607 36.2902 38.9687 38.9285 35.7141 38.9285C32.4596 38.9285 29.8213 36.2902 29.8213 33.0357Z" fill="white"/>
<path fill-rule="evenodd" clip-rule="evenodd" d="M35.7143 43.2141C33.441 43.2141 31.2608 44.1172 29.6534 45.7247C28.0459 47.3321 27.1429 49.5123 27.1429 51.7856V52.857H44.2857V51.7856C44.2857 49.5123 43.3827 47.3321 41.7752 45.7247C40.1677 44.1172 37.9876 43.2141 35.7143 43.2141ZM28.1381 44.2094C30.1475 42.2001 32.8727 41.0713 35.7143 41.0713C38.5559 41.0713 41.2811 42.2001 43.2904 44.2094C45.2997 46.2187 46.4286 48.944 46.4286 51.7856V53.9284C46.4286 54.5202 45.9489 54.9999 45.3571 54.9999H26.0714C25.4797 54.9999 25 54.5202 25 53.9284V51.7856C25 48.944 26.1288 46.2187 28.1381 44.2094Z" fill="white"/>
<path fill-rule="evenodd" clip-rule="evenodd" d="M43.2148 28.2143C43.2148 27.6225 43.6945 27.1428 44.2863 27.1428C45.8492 27.1428 47.348 27.7637 48.4532 28.8688C49.5583 29.9739 50.1791 31.4728 50.1791 33.0357C50.1791 34.5986 49.5583 36.0974 48.4532 37.2026C47.348 38.3077 45.8492 38.9285 44.2863 38.9285C43.6945 38.9285 43.2148 38.4488 43.2148 37.8571C43.2148 37.2654 43.6945 36.7857 44.2863 36.7857C45.2808 36.7857 46.2347 36.3906 46.9379 35.6873C47.6412 34.9841 48.0363 34.0302 48.0363 33.0357C48.0363 32.0411 47.6412 31.0873 46.9379 30.384C46.2347 29.6808 45.2808 29.2857 44.2863 29.2857C43.6945 29.2857 43.2148 28.806 43.2148 28.2143Z" fill="white"/>
<path fill-rule="evenodd" clip-rule="evenodd" d="M46.7129 42.169C46.9233 41.616 47.5422 41.3382 48.0952 41.5486C50.1234 42.3201 51.8695 43.6893 53.1025 45.475C54.3354 47.2606 54.9971 49.3786 55 51.5486L55 51.55L55 53.9286C55 54.5203 54.5203 55 53.9286 55H50.7143C50.1226 55 49.6429 54.5203 49.6429 53.9286C49.6429 53.3368 50.1226 52.8571 50.7143 52.8571H52.8572V51.5507C52.8547 49.8149 52.3254 48.1209 51.3391 46.6925C50.3528 45.264 48.9559 44.1686 47.3333 43.5514C46.7803 43.341 46.5025 42.7221 46.7129 42.169Z" fill="white"/>
</g>
<defs>
<clipPath id="clip0_7_4351">
<rect width="30" height="30" fill="white" transform="translate(25 25)"/>
</clipPath>
</defs>
</svg>
