<svg width="80" height="80" viewBox="0 0 80 80" fill="none" xmlns="http://www.w3.org/2000/svg">
<rect width="80" height="80" fill="#00CCCC"/>
<g clip-path="url(#clip0_7_4335)">
<path fill-rule="evenodd" clip-rule="evenodd" d="M39.9996 27.135C39.7528 27.135 39.5099 27.1978 39.2939 27.3173C39.0779 27.4369 38.8958 27.6094 38.7648 27.8186L38.7625 27.8222L34.6054 34.4008C34.4337 34.6725 34.149 34.8528 33.83 34.8919L28.3972 35.5576C28.1414 35.5862 27.8982 35.684 27.6939 35.8406C27.4896 35.9971 27.3319 36.2065 27.2378 36.4461C27.1437 36.6857 27.1168 36.9465 27.16 37.2003C27.203 37.4531 27.3139 37.6895 27.481 37.8841L32.0001 43.0672C32.2192 43.3185 32.3089 43.6576 32.2425 43.9844L30.787 51.1549C30.7868 51.1561 30.7865 51.1572 30.7863 51.1584C30.7349 51.4255 30.7604 51.7018 30.86 51.955C30.959 52.2069 31.1272 52.4256 31.3451 52.586C31.5703 52.7431 31.8348 52.8344 32.109 52.8496C32.3858 52.865 32.6614 52.8022 32.9042 52.6685L32.9067 52.6671L39.4853 49.0671C39.8058 48.8917 40.1935 48.8917 40.514 49.0671L47.0951 52.6685C47.3379 52.8022 47.6135 52.865 47.8903 52.8496C48.1645 52.8344 48.429 52.7431 48.6542 52.586C48.8721 52.4256 49.0403 52.2069 49.1393 51.955C49.2388 51.7018 49.2644 51.4255 49.213 51.1584C49.2128 51.1573 49.2125 51.1561 49.2123 51.1549L47.7568 43.9844C47.6904 43.6576 47.7801 43.3185 47.9992 43.0672L52.5165 37.8862C52.5171 37.8855 52.5177 37.8848 52.5183 37.8841C52.6853 37.6895 52.7963 37.4531 52.8393 37.2003C52.8825 36.9465 52.8556 36.6857 52.7615 36.4461C52.6674 36.2065 52.5097 35.9971 52.3054 35.8406C52.1011 35.684 51.8579 35.5861 51.6021 35.5575L51.5908 35.5563L46.1693 34.8919C45.8503 34.8528 45.5656 34.6725 45.3939 34.4008L41.2345 27.8186C41.1034 27.6094 40.9214 27.4369 40.7054 27.3173C40.4894 27.1978 40.2465 27.135 39.9996 27.135ZM38.2561 25.4426C38.7897 25.1472 39.3897 24.9922 39.9996 24.9922C40.6096 24.9922 41.2096 25.1472 41.7432 25.4426C42.2762 25.7376 42.7256 26.1631 43.0493 26.6792C43.0497 26.6798 43.0501 26.6805 43.0505 26.6811L46.9341 32.8267L51.8462 33.4286C52.4874 33.5014 53.0967 33.7472 53.609 34.1398C54.1228 34.5336 54.5195 35.0603 54.7561 35.6629C54.9927 36.2656 55.0604 36.9214 54.9518 37.5596C54.8432 38.1979 54.5625 38.7944 54.1399 39.2849L54.1358 39.2897L49.962 44.0766L51.3156 50.7448C51.4459 51.4133 51.3828 52.1052 51.1335 52.7391C50.8843 53.373 50.4594 53.9226 49.9086 54.3234L49.8959 54.3326C49.341 54.724 48.6872 54.9515 48.0092 54.9892C47.3316 55.0268 46.6571 54.8733 46.0625 54.5462C46.0622 54.546 46.0629 54.5464 46.0625 54.5462L39.9996 51.2284L33.9379 54.5455C33.9375 54.5458 33.9383 54.5453 33.9379 54.5455C33.3434 54.8726 32.6677 55.0268 31.9901 54.9892C31.3121 54.9515 30.6583 54.7239 30.1035 54.3325L30.0906 54.3235C29.5399 53.9227 29.115 53.373 28.8657 52.7391C28.6165 52.1052 28.5534 51.4133 28.6837 50.7448L28.6853 50.7367L30.0372 44.0766L25.8594 39.2849C25.4368 38.7945 25.156 38.1979 25.0475 37.5596C24.9389 36.9214 25.0065 36.2656 25.2432 35.6629C25.4798 35.0603 25.8765 34.5336 26.3903 34.1398C26.9025 33.7472 27.5119 33.5014 28.1531 33.4286L33.0652 32.8267L36.9488 26.6811C36.9492 26.6805 36.9496 26.6798 36.95 26.6792C37.2737 26.1631 37.7231 25.7376 38.2561 25.4426Z" fill="white"/>
<path fill-rule="evenodd" clip-rule="evenodd" d="M36.7852 36.8285C36.7852 36.2368 37.2649 35.7571 37.8566 35.7571H39.9994C40.5912 35.7571 41.0709 36.2368 41.0709 36.8285V45.3999C41.0709 45.9917 40.5912 46.4714 39.9994 46.4714C39.4077 46.4714 38.928 45.9917 38.928 45.3999V37.8999H37.8566C37.2649 37.8999 36.7852 37.4202 36.7852 36.8285Z" fill="white"/>
<path fill-rule="evenodd" clip-rule="evenodd" d="M35.7139 45.3998C35.7139 44.8081 36.1936 44.3284 36.7853 44.3284H43.2139C43.8056 44.3284 44.2853 44.8081 44.2853 45.3998C44.2853 45.9915 43.8056 46.4712 43.2139 46.4712H36.7853C36.1936 46.4712 35.7139 45.9915 35.7139 45.3998Z" fill="white"/>
</g>
<defs>
<clipPath id="clip0_7_4335">
<rect width="30" height="30" fill="white" transform="translate(25 25)"/>
</clipPath>
</defs>
</svg>
